<svg xmlns="http://www.w3.org/2000/svg" width="218.4707" height="68.4759" viewBox="0 0 218.4707 68.4759"><g id="Layer_2" data-name="Layer 2"><g id="Header"><path d="M137.0475,7.587h-3.7936V34.1417a3.8047,3.8047,0,0,0,3.7936,3.7935h26.5546V34.1417H137.0475ZM167.3956,0H144.6345a3.8047,3.8047,0,0,0-3.7935,3.7935V26.5547a3.8047,3.8047,0,0,0,3.7935,3.7935h22.7611a3.8047,3.8047,0,0,0,3.7936-3.7935V3.7935A3.8047,3.8047,0,0,0,167.3956,0Zm-1.8967,17.0709H146.5313V13.2773h18.9676Zm-7.5871,7.587H146.5313V20.8644h11.3805Zm7.5871-15.1741H146.5313V5.69h18.9676Z" fill="#7290dd" opacity="0.25"/><path d="M7.4478,28.9249a5.7617,5.7617,0,0,1-3.2618-.938,7.46,7.46,0,0,1-2.2822-2.366v8.988H0V14.0569H1.708v2.8279a7.0817,7.0817,0,0,1,2.3237-2.2261,5.9509,5.9509,0,0,1,3.1084-.854,6.1122,6.1122,0,0,1,2.772.63,7.122,7.122,0,0,1,2.1836,1.68,7.8051,7.8051,0,0,1,1.4424,2.4221,7.9462,7.9462,0,0,1,.5176,2.8279,8.8313,8.8313,0,0,1-.4756,2.9121,7.4308,7.4308,0,0,1-1.3584,2.408,6.525,6.525,0,0,1-2.1,1.6379A5.9556,5.9556,0,0,1,7.4478,28.9249Zm-.5318-1.68a4.5624,4.5624,0,0,0,2.1421-.5041,5.3326,5.3326,0,0,0,1.6519-1.33,5.9716,5.9716,0,0,0,1.05-1.8762,6.5791,6.5791,0,0,0,.3642-2.17,6.0511,6.0511,0,0,0-.42-2.24,6.1944,6.1944,0,0,0-1.1484-1.876,5.4627,5.4627,0,0,0-1.7217-1.288,4.8994,4.8994,0,0,0-2.1421-.4759,4.4058,4.4058,0,0,0-1.5259.294,6.2712,6.2712,0,0,0-1.4839.7839,5.2823,5.2823,0,0,0-1.1762,1.148,3.0943,3.0943,0,0,0-.6021,1.3859v4.48a6.6768,6.6768,0,0,0,.854,1.4561,6.0073,6.0073,0,0,0,1.1763,1.1621,5.6129,5.6129,0,0,0,1.414.77A4.4748,4.4748,0,0,0,6.916,27.2449Z"/><path d="M20.9438,28.9249a5.1566,5.1566,0,0,1-1.9179-.35,4.8371,4.8371,0,0,1-1.54-.9659,4.3536,4.3536,0,0,1-1.3862-3.22,3.5921,3.5921,0,0,1,.4483-1.7639,4.2632,4.2632,0,0,1,1.26-1.4,6.1743,6.1743,0,0,1,1.9321-.91,8.905,8.905,0,0,1,2.4639-.3221,13.49,13.49,0,0,1,2.2681.1961,9.8629,9.8629,0,0,1,2.0439.56V19.4329a4.2339,4.2339,0,0,0-1.0918-3.0661A4.0009,4.0009,0,0,0,22.4,15.2327a6.4306,6.4306,0,0,0-2.2959.448,11.0758,11.0758,0,0,0-2.38,1.2881l-.6718-1.26A9.8529,9.8529,0,0,1,22.54,13.8047a5.8891,5.8891,0,0,1,4.312,1.54A5.6935,5.6935,0,0,1,28.42,19.6009v6.58q0,.7845.7.7842v1.68a4.5515,4.5515,0,0,1-.728.084,1.6373,1.6373,0,0,1-1.1338-.364,1.3672,1.3672,0,0,1-.4341-1.0081l-.0561-1.1479a6.6121,6.6121,0,0,1-2.5337,2.0161A7.8031,7.8031,0,0,1,20.9438,28.9249Zm.4478-1.4561a6.5753,6.5753,0,0,0,2.73-.56,4.46,4.46,0,0,0,1.89-1.4838,1.7416,1.7416,0,0,0,.3779-.5462,1.3931,1.3931,0,0,0,.126-.5459v-2.38a11.71,11.71,0,0,0-1.9736-.56,11.0782,11.0782,0,0,0-2.0864-.1961,5.8038,5.8038,0,0,0-3.2759.84,2.5535,2.5535,0,0,0-1.26,2.2119,3.023,3.023,0,0,0,.2656,1.26,3.194,3.194,0,0,0,.7281,1.022,3.404,3.404,0,0,0,1.1064.6861A3.7284,3.7284,0,0,0,21.3916,27.4688Z"/><path d="M44.7993,28.6448H42.8955V20.4969a7.1086,7.1086,0,0,0-.77-3.78A2.6309,2.6309,0,0,0,39.76,15.5408a4.853,4.853,0,0,0-1.68.3081,5.6726,5.6726,0,0,0-1.5542.868,6.6393,6.6393,0,0,0-1.2739,1.33,5.2067,5.2067,0,0,0-.812,1.666v8.9319H32.5356V14.0569h1.7359v3.304a6.8552,6.8552,0,0,1,2.562-2.5762,7.0261,7.0261,0,0,1,3.626-.98,4.3,4.3,0,0,1,2.0439.448,3.4915,3.4915,0,0,1,1.3443,1.26,5.8214,5.8214,0,0,1,.728,1.988,13.9955,13.9955,0,0,1,.2236,2.604Z"/><path d="M54.8511,28.9249a6.2825,6.2825,0,0,1-2.8-.63,7.1131,7.1131,0,0,1-2.2119-1.666,7.6456,7.6456,0,0,1-1.4419-2.3938,7.8981,7.8981,0,0,1-.5181-2.842,8.4983,8.4983,0,0,1,.5039-2.926,7.8218,7.8218,0,0,1,1.3857-2.4222,6.5447,6.5447,0,0,1,2.1-1.6379,5.9548,5.9548,0,0,1,2.6744-.6021,5.7083,5.7083,0,0,1,3.2758.9661,7.3132,7.3132,0,0,1,2.24,2.3381V8.2049h1.9043V26.1807q0,.7845.6719.7842v1.68a3.62,3.62,0,0,1-.6719.084,1.7444,1.7444,0,0,1-1.1763-.4341,1.3375,1.3375,0,0,1-.5039-1.05V25.817a6.3812,6.3812,0,0,1-2.352,2.2678A6.1714,6.1714,0,0,1,54.8511,28.9249Zm.42-1.68a4.53,4.53,0,0,0,1.4975-.28,6.1483,6.1483,0,0,0,1.4981-.77,5.1579,5.1579,0,0,0,1.19-1.148,3.109,3.109,0,0,0,.6016-1.414V19.1248a5.01,5.01,0,0,0-.812-1.414,6.5469,6.5469,0,0,0-1.2178-1.1619,5.7358,5.7358,0,0,0-1.47-.784,4.5623,4.5623,0,0,0-1.54-.28,4.479,4.479,0,0,0-2.1279.5039,5.378,5.378,0,0,0-1.6377,1.33,5.9262,5.9262,0,0,0-1.05,1.89,6.7044,6.7044,0,0,0-.3637,2.1841,6.1169,6.1169,0,0,0,1.5678,4.102,5.5473,5.5473,0,0,0,1.7222,1.274A4.8892,4.8892,0,0,0,55.2715,27.2449Z"/><path d="M72.5752,28.9249a7.0145,7.0145,0,0,1-2.9258-.6021,7.1636,7.1636,0,0,1-2.31-1.6521,7.6523,7.6523,0,0,1-1.5259-2.4219,7.8689,7.8689,0,0,1-.5464-2.94,7.6915,7.6915,0,0,1,.5464-2.898,7.5009,7.5009,0,0,1,1.5117-2.38,7.1839,7.1839,0,0,1,2.31-1.624,7.3762,7.3762,0,0,1,5.8378,0,6.968,6.968,0,0,1,2.2823,1.6379,7.6939,7.6939,0,0,1,2.0161,5.2361v.448a1.13,1.13,0,0,1-.0283.3081H67.2554a6.1381,6.1381,0,0,0,.5459,2.17,5.9606,5.9606,0,0,0,1.19,1.722,5.32,5.32,0,0,0,1.666,1.134,4.9832,4.9832,0,0,0,2.002.406,5.1683,5.1683,0,0,0,1.4-.196,5.6436,5.6436,0,0,0,1.2881-.532,4.7764,4.7764,0,0,0,1.0639-.8259,3.5439,3.5439,0,0,0,.7281-1.0782l1.6523.448a4.8561,4.8561,0,0,1-.9521,1.47,6.6323,6.6323,0,0,1-1.4283,1.148,6.9853,6.9853,0,0,1-1.792.7558A7.7685,7.7685,0,0,1,72.5752,28.9249Zm5.376-8.344A5.8533,5.8533,0,0,0,76.23,16.7728a5.2148,5.2148,0,0,0-1.6524-1.0921,5.1442,5.1442,0,0,0-2.0019-.3918,5.2488,5.2488,0,0,0-2.0161.3918,5.1716,5.1716,0,0,0-1.666,1.0921,5.38,5.38,0,0,0-1.148,1.68,6.3609,6.3609,0,0,0-.518,2.128Z"/><path d="M104.4106,28.6448h-1.9038V20.4969a6.829,6.829,0,0,0-.812-3.752,2.7156,2.7156,0,0,0-2.4082-1.2041,4.083,4.083,0,0,0-1.5815.3081,4.8634,4.8634,0,0,0-1.3721.868,5.9318,5.9318,0,0,0-1.1059,1.33,6.3912,6.3912,0,0,0-.7281,1.6939v8.904H92.5947V20.4969a7.0089,7.0089,0,0,0-.7837-3.78,2.6938,2.6938,0,0,0-2.4082-1.1761,4.2938,4.2938,0,0,0-2.94,1.148,6.3925,6.3925,0,0,0-1.8482,3.0241v8.9319H82.7109V14.0569h1.7359v3.304a6.8981,6.8981,0,0,1,2.352-2.6182,5.8249,5.8249,0,0,1,3.22-.938,4.1465,4.1465,0,0,1,2.9537,1.0362,4.5135,4.5135,0,0,1,1.3584,2.716q2.0434-3.7518,5.6279-3.7522a4.4529,4.4529,0,0,1,2.0859.448,3.5354,3.5354,0,0,1,1.3721,1.2742,5.974,5.974,0,0,1,.7559,1.988,12.9823,12.9823,0,0,1,.2377,2.59Z"/><path d="M108.4429,11.0049v-2.8h1.9038v2.8Zm0,17.64V14.0569h1.9038V28.6448Z"/><path d="M113.5381,21.3089a7.9787,7.9787,0,0,1,.5322-2.9121,7.2756,7.2756,0,0,1,1.4981-2.3941,6.9986,6.9986,0,0,1,2.31-1.61,7.3238,7.3238,0,0,1,2.9678-.5882,6.811,6.811,0,0,1,3.6123.938,6.0307,6.0307,0,0,1,2.3237,2.5342l-1.8481.5879a4.4374,4.4374,0,0,0-1.7217-1.75,5.08,5.08,0,0,0-4.5361-.1819,5.3265,5.3265,0,0,0-1.68,1.218,5.5966,5.5966,0,0,0-1.12,1.834,6.7438,6.7438,0,0,0,.0136,4.648,5.9324,5.9324,0,0,0,1.148,1.89,5.4662,5.4662,0,0,0,1.6943,1.26,4.709,4.709,0,0,0,2.0581.4621,5.0185,5.0185,0,0,0,1.3858-.196,5.3357,5.3357,0,0,0,1.2739-.5462,4.5774,4.5774,0,0,0,1.0083-.7978,2.5968,2.5968,0,0,0,.5879-.9522l1.876.56a4.7691,4.7691,0,0,1-.896,1.4421,6.1678,6.1678,0,0,1-1.3863,1.148,6.7844,6.7844,0,0,1-1.7636.7558,7.5121,7.5121,0,0,1-2.002.2662,7.0841,7.0841,0,0,1-5.2641-2.2542,7.6523,7.6523,0,0,1-1.5259-2.4219A7.8689,7.8689,0,0,1,113.5381,21.3089Z"/><path d="M.54,68.2449V44.815H10.7368a6.5062,6.5062,0,0,1,2.92.66,7.487,7.487,0,0,1,2.2935,1.7324A8.18,8.18,0,0,1,17.4526,49.65a7.4932,7.4932,0,0,1,.5445,2.7885,7.8184,7.8184,0,0,1-.33,2.2769,7.9783,7.9783,0,0,1-.9243,2.0129,6.491,6.491,0,0,1-1.4517,1.6006A5.9764,5.9764,0,0,1,13.41,59.335l5.5112,8.91H14.73L9.6479,60.0941H4.2358v8.1508ZM4.2358,56.827h6.4683a2.9773,2.9773,0,0,0,1.4351-.3465,3.4022,3.4022,0,0,0,1.1059-.957,4.8555,4.8555,0,0,0,.7256-1.4026,5.2793,5.2793,0,0,0,.2642-1.6829,4.532,4.532,0,0,0-.3135-1.6831,4.8389,4.8389,0,0,0-.8252-1.3859,3.9161,3.9161,0,0,0-1.188-.9405,3.0377,3.0377,0,0,0-1.4023-.3467h-6.27Z" fill="#7290dd"/><path d="M40.4038,64.9778v3.2671H24.333V44.815H40.1069v3.2668H28.0288v6.6661H38.49V57.817H28.0288v7.1608Z" fill="#7290dd"/><path d="M46.2119,68.2449V44.815h9.834a6.5093,6.5093,0,0,1,2.92.66A7.487,7.487,0,0,1,61.26,47.2073,8.1809,8.1809,0,0,1,62.7612,49.65a7.4832,7.4832,0,0,1,.5445,2.7885,8.0935,8.0935,0,0,1-.5113,2.8545,7.9954,7.9954,0,0,1-1.4355,2.4419,6.9937,6.9937,0,0,1-2.2276,1.7161,6.435,6.435,0,0,1-2.8876.6436h-6.336v8.1508ZM49.9077,56.827h6.105a3.0967,3.0967,0,0,0,1.4355-.33,3.2861,3.2861,0,0,0,1.1055-.9241,4.6135,4.6135,0,0,0,.7261-1.386,5.5077,5.5077,0,0,0,.2641-1.7488,5.0424,5.0424,0,0,0-.2973-1.7822,4.1882,4.1882,0,0,0-.8247-1.3694,3.7883,3.7883,0,0,0-1.2046-.8911,3.3063,3.3063,0,0,0-1.4024-.3135H49.9077Z" fill="#7290dd"/><path d="M78.4854,68.41a10.2729,10.2729,0,0,1-4.57-1.0066,11.38,11.38,0,0,1-3.5478-2.6729,12.0766,12.0766,0,0,1-2.2935-3.8115,12.3487,12.3487,0,0,1-.8086-4.3892,11.9611,11.9611,0,0,1,.8584-4.4878,12.451,12.451,0,0,1,2.3594-3.7951,11.2751,11.2751,0,0,1,3.564-2.6236,10.4209,10.4209,0,0,1,4.5044-.9733,10.0115,10.0115,0,0,1,4.5708,1.04,11.5061,11.5061,0,0,1,3.5307,2.7224A12.51,12.51,0,0,1,88.93,52.2234a12.22,12.22,0,0,1-.0327,8.8274,11.8525,11.8525,0,0,1-2.36,3.7786,11.583,11.583,0,0,1-3.58,2.6069A10.3436,10.3436,0,0,1,78.4854,68.41ZM71.0273,56.53a9.862,9.862,0,0,0,.5279,3.2012,8.7,8.7,0,0,0,1.5014,2.739,7.3358,7.3358,0,0,0,2.36,1.8975,6.7008,6.7008,0,0,0,3.1021.7095,6.5084,6.5084,0,0,0,3.1513-.7425,7.4264,7.4264,0,0,0,2.3267-1.9636,8.8476,8.8476,0,0,0,1.4516-2.739,9.9409,9.9409,0,0,0,.4952-3.1021,9.8314,9.8314,0,0,0-.5279-3.2175,8.5548,8.5548,0,0,0-1.5014-2.7058,7.5182,7.5182,0,0,0-2.3433-1.8811,6.5375,6.5375,0,0,0-3.0522-.7095,6.6045,6.6045,0,0,0-3.168.7425,7.5459,7.5459,0,0,0-2.3433,1.9306,8.6551,8.6551,0,0,0-1.4682,2.7224A9.78,9.78,0,0,0,71.0273,56.53Z" fill="#7290dd"/><path d="M109.4062,50.326a5.1035,5.1035,0,0,0-.957-.7756,9.632,9.632,0,0,0-1.4682-.7754,10.715,10.715,0,0,0-1.8482-.594,9.2074,9.2074,0,0,0-2.0625-.231,5.6193,5.6193,0,0,0-3.4487.8579,2.84,2.84,0,0,0-1.1055,2.376,2.5725,2.5725,0,0,0,.3467,1.4026,2.9717,2.9717,0,0,0,1.0723.957,8.3785,8.3785,0,0,0,1.8154.7258q1.0884.3143,2.54.6766a29.1366,29.1366,0,0,1,3.2178.957,9.1634,9.1634,0,0,1,2.4253,1.2871,5.24,5.24,0,0,1,1.5347,1.8645,6.0476,6.0476,0,0,1,.5444,2.69,6.5187,6.5187,0,0,1-.6763,3.069,5.7642,5.7642,0,0,1-1.8481,2.0955,8.1462,8.1462,0,0,1-2.7227,1.188,14.011,14.011,0,0,1-3.333.3794,16.62,16.62,0,0,1-5.1645-.8084,14.787,14.787,0,0,1-4.5044-2.36l1.6831-3.168a7.817,7.817,0,0,0,1.2373.9571,11.5083,11.5083,0,0,0,1.8813.9734,16.3853,16.3853,0,0,0,2.3262.759,10.6817,10.6817,0,0,0,2.6069.3135,6.2492,6.2492,0,0,0,3.3662-.7591,2.4924,2.4924,0,0,0,1.188-2.2439,2.4065,2.4065,0,0,0-.4453-1.4851,3.833,3.833,0,0,0-1.27-1.0393,11.1182,11.1182,0,0,0-2.0132-.8086q-1.188-.3629-2.706-.759a27.911,27.911,0,0,1-3.0523-.9734,7.6212,7.6212,0,0,1-2.1616-1.2375,4.8542,4.8542,0,0,1-1.3037-1.7,5.6459,5.6459,0,0,1-.4453-2.36,6.8016,6.8016,0,0,1,.66-3.0525,6.5229,6.5229,0,0,1,1.7984-2.2439,7.8651,7.8651,0,0,1,2.6894-1.37,11.7462,11.7462,0,0,1,3.3662-.4619,12.3433,12.3433,0,0,1,4.3887.759,14.5579,14.5579,0,0,1,3.5313,1.8809Z" fill="#7290dd"/><path d="M117.689,68.2449V44.815h3.6958v23.43Z" fill="#7290dd"/><path d="M145.8374,48.0818h-7.7881V68.2449H134.32V48.0818H126.5V44.815h19.3379Z" fill="#7290dd"/><path d="M159.5986,68.41a10.2725,10.2725,0,0,1-4.57-1.0066,11.3788,11.3788,0,0,1-3.5478-2.6729,12.0766,12.0766,0,0,1-2.2935-3.8115,12.3464,12.3464,0,0,1-.8086-4.3892,11.9611,11.9611,0,0,1,.8584-4.4878,12.451,12.451,0,0,1,2.3594-3.7951,11.2751,11.2751,0,0,1,3.564-2.6236,10.4206,10.4206,0,0,1,4.5044-.9733,10.0115,10.0115,0,0,1,4.5708,1.04,11.5061,11.5061,0,0,1,3.5307,2.7224,12.51,12.51,0,0,1,2.2769,3.8115,12.22,12.22,0,0,1-.0327,8.8274,11.8525,11.8525,0,0,1-2.36,3.7786,11.583,11.583,0,0,1-3.58,2.6069A10.3437,10.3437,0,0,1,159.5986,68.41Zm-7.458-11.88a9.862,9.862,0,0,0,.5279,3.2012A8.7,8.7,0,0,0,154.17,62.47a7.3347,7.3347,0,0,0,2.36,1.8975,6.7007,6.7007,0,0,0,3.102.7095,6.5085,6.5085,0,0,0,3.1514-.7425,7.4264,7.4264,0,0,0,2.3267-1.9636,8.85,8.85,0,0,0,1.4516-2.739,9.9408,9.9408,0,0,0,.4951-3.1021,9.8313,9.8313,0,0,0-.5278-3.2175,8.5531,8.5531,0,0,0-1.5015-2.7058,7.5167,7.5167,0,0,0-2.3432-1.8811,6.5376,6.5376,0,0,0-3.0523-.7095,6.6041,6.6041,0,0,0-3.1679.7425,7.5459,7.5459,0,0,0-2.3433,1.9306,8.6573,8.6573,0,0,0-1.4683,2.7224A9.78,9.78,0,0,0,152.1406,56.53Z" fill="#7290dd"/><path d="M176.66,68.2449V44.815h10.1967a6.507,6.507,0,0,1,2.9205.66,7.4866,7.4866,0,0,1,2.2934,1.7324,8.1826,8.1826,0,0,1,1.502,2.4422,7.4931,7.4931,0,0,1,.5444,2.7885,7.8184,7.8184,0,0,1-.33,2.2769,7.9783,7.9783,0,0,1-.9243,2.0129,6.491,6.491,0,0,1-1.4517,1.6006,5.9764,5.9764,0,0,1-1.8813,1.0066l5.5112,8.91H190.85l-5.082-8.1508h-5.4121v8.1508Zm3.6958-11.4179h6.4682a2.9767,2.9767,0,0,0,1.4351-.3465,3.4012,3.4012,0,0,0,1.1059-.957,4.8505,4.8505,0,0,0,.7256-1.4026,5.2793,5.2793,0,0,0,.2642-1.6829,4.532,4.532,0,0,0-.3135-1.6831,4.8389,4.8389,0,0,0-.8252-1.3859,3.9161,3.9161,0,0,0-1.188-.9405,3.0371,3.0371,0,0,0-1.4023-.3467h-6.27Z" fill="#7290dd"/><path d="M201.41,44.815l6.4682,11.748,6.5337-11.748h4.0591l-8.7451,15.0479v8.382H206.03v-8.448L197.3506,44.815Z" fill="#7290dd"/></g></g></svg>