<svg xmlns="http://www.w3.org/2000/svg" viewBox="0 0 380.81 85.5"><defs><style>.cls-1{fill:#be0e23;}</style></defs><g id="Layer_2" data-name="Layer 2"><g id="Layer_1-2" data-name="Layer 1"><path class="cls-1" d="M75.12,21.37a8.08,8.08,0,0,0-3-2.94L42.12,1.08a8,8,0,0,0-8,0L4,18.43a8.08,8.08,0,0,0-4,7V60.1a8,8,0,0,0,4,7L34.07,84.42a8,8,0,0,0,8,0L72.16,67.07a7.93,7.93,0,0,0,3-2.94,8,8,0,0,0,1.09-4V25.4A8.06,8.06,0,0,0,75.12,21.37Zm-33-6.53c0,.2.08.42.13.63A14.23,14.23,0,0,0,56.44,26a17.85,17.85,0,0,0-4.35,6.9,21.36,21.36,0,0,1-9.61-4.41,21.47,21.47,0,0,1-6.36-8.45.24.24,0,0,0,0-.12l-.25-.64a.92.92,0,0,1-.09-.28,2.9,2.9,0,0,1-.16-.47l-.14-.4-.08-.28a3.8,3.8,0,0,1-.14-.51,19.12,19.12,0,0,1-.51-2.59A27.71,27.71,0,0,1,42.14,14.84ZM15.94,25.29l.62.21a14.25,14.25,0,0,0,16.2-7.07,18,18,0,0,0,3.79,7.22,21.4,21.4,0,0,1-19,7.37h-.27L16.91,33a6.17,6.17,0,0,1-.62-.11h-.1c-.51-.1-1-.21-1.51-.31a22.75,22.75,0,0,1-2.51-.9A28.37,28.37,0,0,1,15.94,25.29Zm3.39,30.57-.43.54-.19.23-.34.37a2.8,2.8,0,0,1-.28.31l-.18.2-.39.4a19.85,19.85,0,0,1-2,1.79,28.58,28.58,0,0,1-3.63-6.44c.16-.15.33-.29.48-.44a14.21,14.21,0,0,0,4.07-8.41,14.25,14.25,0,0,0-2-9.12,17.83,17.83,0,0,0,8.15.31,21.46,21.46,0,0,1,1,10.48,21.41,21.41,0,0,1-4.13,9.68ZM34.05,70.64c0-.21-.08-.42-.13-.64A14.22,14.22,0,0,0,19.75,59.49a18,18,0,0,0,4.35-6.91,21.55,21.55,0,0,1,16,12.87.2.2,0,0,0,0,.11c.08.22.16.43.25.65s.07.18.09.27a2.52,2.52,0,0,1,.17.48,1.38,1.38,0,0,1,.13.39l.08.28a4.5,4.5,0,0,1,.14.49,20.83,20.83,0,0,1,.52,2.59A28.2,28.2,0,0,1,34.05,70.64Zm26.2-10.38c-.21-.07-.4-.14-.62-.2a14.23,14.23,0,0,0-16.2,7,17.87,17.87,0,0,0-3.79-7.22,21.47,21.47,0,0,1,19-7.37H59l.34.05.61.11H60a12.79,12.79,0,0,1,1.51.37,20.08,20.08,0,0,1,2.5.89A27.9,27.9,0,0,1,60.25,60.26Zm4-28-.49.44a14.23,14.23,0,0,0-2,17.53,17.87,17.87,0,0,0-8.16-.32,21.4,21.4,0,0,1,3.15-20.15l.07-.1.44-.55.19-.22.33-.38c.09-.1.18-.21.28-.31l.19-.2.39-.41a21.06,21.06,0,0,1,2-1.78,27.78,27.78,0,0,1,3.63,6.44Z"/><path class="cls-1" d="M126.72,15.46V36h-5V27.66H107.35V36h-5V15.44h5V23.2h14.33V15.46Z"/><path class="cls-1" d="M136.49,19.89v3.49h15.23v4H136.49v4.07h15.88v4.45H131.45V15.4h20.92v4.42Z"/><path class="cls-1" d="M174.42,31.58H162.24L160.18,36h-5.27l9.78-20.54H172L181.74,36h-5.26Zm-1.93-4.16-4.16-8.9-4.16,8.9Z"/><path class="cls-1" d="M203.08,31.55V36H185.34V15.44h5V31.55Z"/><path class="cls-1" d="M222.43,19.89h-8.84V36h-5V19.89h-8.84V15.46h22.72Z"/><path class="cls-1" d="M250.58,15.46V36h-5V27.66H231.22V36h-5V15.44h5V23.2h14.32V15.46Z"/><path class="cls-1" d="M329.64,49.4V70l-5.68.06L311.88,55.46V70H307V49.4h6.42l11.34,13.69V49.4Z"/><path class="cls-1" d="M338.43,53.84v3.51h15.31v4.07H338.43v4.12h16V70h-21V49.4h21v4.44Z"/><path class="cls-1" d="M380.81,53.84h-8.89V70h-5.07V53.84H358V49.4h22.86Z"/><path class="cls-1" d="M112.73,61.88c-7.88-.36-11-2.11-11-6.62s4.54-6.36,10.8-6.36a22.9,22.9,0,0,1,9.53,1.73v5.3a17.34,17.34,0,0,0-9.53-2.61c-4.18,0-5.82.5-5.82,1.82,0,1.14,1.29,1.7,6.26,1.86,7.47.26,10.67,2,10.67,6.47,0,5.43-5.09,7.27-10.9,7.27-4.36,0-7.79-.58-10.43-1.79v-5.6c2.67,2,5.92,3,10.46,3,3.9,0,5.92-.82,5.92-2.34S117,62.08,112.73,61.88Z"/><path class="cls-1" d="M132.91,54v3.48h15.23v4H132.91v4.1h15.87v4.46h-21V49.53h20.91V54Z"/><path class="cls-1" d="M164.39,66c3.8,0,7.53-1,9.84-3.19v5.83c-2.34,1.32-5.33,2.11-9.81,2.11-6.45,0-12.4-3.43-12.4-10.9s5.78-11,12.4-11c4.48,0,7.4.78,9.81,2.11v5.74a14.46,14.46,0,0,0-9.81-3.4c-4.6,0-7.27,2.49-7.27,6.54C157.13,63.72,159.91,66,164.39,66Z"/><path class="cls-1" d="M196.73,49.53h5v8.82c0,8.76-5.48,12.14-11.72,12.14S178.3,67.14,178.3,58.35V49.53h5v8.82c0,5.3,2.48,7.62,6.7,7.62s6.68-2.32,6.68-7.62Z"/><path class="cls-1" d="M216,63.1H211.1v7h-5V49.53h11.21c5.77,0,9.9,1.55,9.9,6.77,0,3.51-1.87,5.36-4.87,6.21l7.1,7.53H222.5Zm-4.92-4.42H217c3.67,0,5.07-.68,5.07-2.34S220.68,54,217,54H211.1Z"/><path class="cls-1" d="M238.4,49.53V70.08h-5.06V49.53Z"/><path class="cls-1" d="M264.88,54H256V70.08h-5V54h-8.85V49.53h22.74Z"/><path class="cls-1" d="M281,62.43v7.65h-5V62.37L265.3,49.53h6.53l6.66,8.53L285,49.53h6.53Z"/></g></g></svg>