<svg xmlns="http://www.w3.org/2000/svg" viewBox="0 0 60.04 59.21"><defs><style>.cls-1{fill:#8d99ae;}.cls-2{fill:#be0e23;}</style></defs><g id="Layer_2" data-name="Layer 2"><g id="Layer_1-2" data-name="Layer 1"><polygon class="cls-1" points="36.73 6.63 30.02 13.25 23.3 6.63 30.02 0 36.73 6.63"/><polygon class="cls-1" points="48.39 18.12 41.67 24.74 34.95 18.12 41.67 11.49 48.39 18.12"/><polygon class="cls-1" points="60.04 29.61 53.33 36.24 46.61 29.61 53.33 22.99 60.04 29.61"/><polygon class="cls-1" points="25.09 18.11 18.37 24.74 11.65 18.11 18.37 11.49 25.09 18.11"/><polygon class="cls-1" points="48.4 41.1 41.68 47.73 34.96 41.1 41.68 34.47 48.4 41.1"/><polygon class="cls-1" points="13.44 29.6 6.72 36.23 0 29.6 6.72 22.97 13.44 29.6"/><polygon class="cls-1" points="25.09 41.09 18.37 47.72 11.65 41.09 18.37 34.47 25.09 41.09"/><polygon class="cls-1" points="36.75 52.59 30.03 59.21 23.31 52.59 30.03 45.96 36.75 52.59"/><path class="cls-2" d="M30,18.69,19,29.61,30,40.52,41.09,29.61ZM23.88,29.61,30,23.54l6.15,6.07L30,35.67Z"/></g></g></svg>