<svg xmlns="http://www.w3.org/2000/svg" width="263.6468" height="64.6618" viewBox="0 0 263.6468 64.6618"><g id="Layer_2" data-name="Layer 2"><g id="Layer_1-2" data-name="Layer 1"><path d="M67.34,60.6614h2.7024v3.3635a7.448,7.448,0,0,1-2.95.6369,4.4135,4.4135,0,0,1-3.1953-1.1512,3.7806,3.7806,0,0,1-1.1962-2.8384,3.9245,3.9245,0,0,1,1.239-2.9609A4.3244,4.3244,0,0,1,67.0454,56.53a5.5593,5.5593,0,0,1,1.2916.145,10.6117,10.6117,0,0,1,1.5439.531v1.1591a5.73,5.73,0,0,0-2.8584-.824,3.0577,3.0577,0,0,0-2.2245.8867,3.1133,3.1133,0,0,0,0,4.3874,3.2468,3.2468,0,0,0,2.3288.8583,5.5157,5.5157,0,0,0,1.6533-.3125l.1093-.0343V61.6725H67.34Z" fill="#6b6b6b"/><path d="M71.8273,56.6316H72.98V63.536h3.6244v1.0347H71.8273Z" fill="#6b6b6b"/><path d="M81.1964,56.5179a4.3657,4.3657,0,0,1,3.1068,1.165,3.8391,3.8391,0,0,1,1.2409,2.9217,3.7784,3.7784,0,0,1-1.2518,2.906,4.4927,4.4927,0,0,1-3.1595,1.1512,4.23,4.23,0,0,1-3.0313-1.1512,3.8081,3.8081,0,0,1-1.2121-2.8835,3.8972,3.8972,0,0,1,1.22-2.9442A4.2963,4.2963,0,0,1,81.1964,56.5179Zm.0467,1.08a3.15,3.15,0,0,0-2.2722.8524,2.8868,2.8868,0,0,0-.8893,2.177,2.8348,2.8348,0,0,0,.8922,2.1369,3.3475,3.3475,0,0,0,4.4829-.0177,2.8862,2.8862,0,0,0,.9-2.1653,2.8209,2.8209,0,0,0-.9-2.1221A3.0836,3.0836,0,0,0,81.2431,57.5977Z" fill="#6b6b6b"/><path d="M89.75,64.5707H87.0235V56.6316h2.1093a3.714,3.714,0,0,1,1.5559.2645,1.9762,1.9762,0,0,1,.8524.728,1.947,1.947,0,0,1,.2941,1.0709,1.7316,1.7316,0,0,1-1.227,1.6764,2.5027,2.5027,0,0,1,1.4029.7162,1.85,1.85,0,0,1,.5216,1.3178,1.9159,1.9159,0,0,1-.3169,1.0856,2.3,2.3,0,0,1-.931.7789A3.4737,3.4737,0,0,1,89.75,64.5707Zm-.5822-6.927H88.176V60.03h.767a1.9631,1.9631,0,0,0,1.3105-.3468,1.1469,1.1469,0,0,0,.3895-.8975Q90.643,57.6428,89.1676,57.6437Zm.0864,3.3978H88.176V63.56h1.1356a3.7566,3.7566,0,0,0,1.2817-.145,1.2294,1.2294,0,0,0,.5425-.4516,1.1683,1.1683,0,0,0,.2037-.6594,1.1153,1.1153,0,0,0-.2156-.6653A1.281,1.281,0,0,0,90.51,61.19,3.8762,3.8762,0,0,0,89.254,61.0415Z" fill="#6b6b6b"/><path d="M96.2982,56.5865h.8107l3.61,7.9842h-1.18l-1.0731-2.3525H95.0315L94.025,64.5707H92.8407Zm1.694,4.62-1.2995-2.8746-1.2042,2.8746Z" fill="#6b6b6b"/><path d="M101.6683,56.6316h1.1525V63.536h3.6245v1.0347h-4.777Z" fill="#6b6b6b"/><path d="M116.3379,56.6316h1.1526v7.9391h-1.1526V61.116h-4.5235v3.4547h-1.1526V56.6316h1.1526v3.4331h4.5235Z" fill="#6b6b6b"/><path d="M119.38,56.6316h4.5643v1.0121h-3.4118v2.421h3.2965v1.017h-3.2965v2.4661h3.5211v1.0111H119.38Z" fill="#6b6b6b"/><path d="M128.1889,56.5865H129l3.61,7.9842h-1.18l-1.073-2.3525h-3.4337l-1.0064,2.3525h-1.1843Zm1.694,4.62-1.3-2.8746-1.2041,2.8746Z" fill="#6b6b6b"/><path d="M133.559,56.6316h1.1525V63.536h3.6244v1.0347H133.559Z" fill="#6b6b6b"/><path d="M137.6355,56.6208h6.7253v1.0111H141.554v6.9388h-1.1584V57.6319h-2.76Z" fill="#6b6b6b"/><path d="M151.091,56.6316h1.1525v7.9391H151.091V61.116h-4.5236v3.4547h-1.1525V56.6316h1.1525v3.4331h4.5236Z" fill="#6b6b6b"/><path d="M159.2192,61.2444l-.8763-.5242a3.967,3.967,0,0,1-1.1724-.9769,1.8325,1.8325,0,0,1-.3487-1.1051,1.9448,1.9448,0,0,1,.66-1.5236,2.4893,2.4893,0,0,1,1.7148-.5849,3.2784,3.2784,0,0,1,1.85.5585v1.2893a2.688,2.688,0,0,0-1.8728-.8249,1.5667,1.5667,0,0,0-.928.2577.7772.7772,0,0,0-.3636.6593,1.0067,1.0067,0,0,0,.2682.6682,3.3521,3.3521,0,0,0,.8595.6536l.88.5134a2.5431,2.5431,0,0,1,1.4735,2.2084,2.0121,2.0121,0,0,1-.6488,1.5519,2.39,2.39,0,0,1-1.6851.5967,3.5719,3.5719,0,0,1-2.1728-.7231V62.4955a2.723,2.723,0,0,0,2.1609,1.1659,1.3728,1.3728,0,0,0,.9021-.2968.93.93,0,0,0,.36-.7447Q160.2793,61.8939,159.2192,61.2444Z" fill="#6b6b6b"/><path d="M162.786,56.6316H167.35v1.0121h-3.4118v2.421h3.2966v1.017h-3.2966v2.4661H167.46v1.0111H162.786Z" fill="#6b6b6b"/><path d="M175.5689,62.73v1.25a6.08,6.08,0,0,1-2.927.6819,4.5689,4.5689,0,0,1-2.2881-.534,4.0294,4.0294,0,0,1-2.0338-3.5007,3.85,3.85,0,0,1,1.2539-2.9158,4.3333,4.3333,0,0,1,3.0909-1.1816,7.3285,7.3285,0,0,1,2.8177.6535V58.405a5.6056,5.6056,0,0,0-2.76-.7956,3.2154,3.2154,0,0,0-2.2961.8612,3.01,3.01,0,0,0-.0149,4.3041,3.2354,3.2354,0,0,0,2.3.8417A5.2643,5.2643,0,0,0,175.5689,62.73Z" fill="#6b6b6b"/><path d="M182.63,56.6316h1.1585v4.5069a5.27,5.27,0,0,1-.1361,1.38,2.9941,2.9941,0,0,1-.3339.776,2.49,2.49,0,0,1-.4868.5536,3.73,3.73,0,0,1-2.5007.8132,3.7711,3.7711,0,0,1-2.5246-.8073,2.613,2.613,0,0,1-.4869-.5595,2.9025,2.9025,0,0,1-.3278-.7583,5.49,5.49,0,0,1-.13-1.41V56.6316H178.02v4.5069a3.301,3.301,0,0,0,.2593,1.5569,1.84,1.84,0,0,0,.7889.7015,2.7726,2.7726,0,0,0,1.2508.2645,2.5558,2.5558,0,0,0,1.6712-.5281,1.6491,1.6491,0,0,0,.49-.6711,4.0568,4.0568,0,0,0,.15-1.3237Z" fill="#6b6b6b"/><path d="M185.5838,64.5707V56.6316h2.0169a2.94,2.94,0,0,1,1.9394.5967,1.9909,1.9909,0,0,1,.7173,1.6146,2.0458,2.0458,0,0,1-.3517,1.1983,2.089,2.089,0,0,1-1.0084.7564,3.5452,3.5452,0,0,1,.7551.6819,13.8519,13.8519,0,0,1,1.0372,1.5059q.42.6761.6736,1.017l.4273.5683h-1.3721l-.3507-.5232c-.012-.0186-.0348-.051-.07-.097l-.2245-.3126-.3567-.58-.3855-.6192a6.19,6.19,0,0,0-.6538-.7789,2.4906,2.4906,0,0,0-.5365-.4164,1.833,1.833,0,0,0-.8047-.1274h-.3v3.4547Zm1.4983-6.973h-.3458v2.5062h.4382a3.2788,3.2788,0,0,0,1.2012-.1479,1.111,1.111,0,0,0,.5067-.4458,1.2788,1.2788,0,0,0,.1818-.679,1.1969,1.1969,0,0,0-.2017-.679,1.0754,1.0754,0,0,0-.5673-.4291A4.1511,4.1511,0,0,0,187.0821,57.5977Z" fill="#6b6b6b"/><path d="M192.7512,56.6316h1.1525v7.9391h-1.1525Z" fill="#6b6b6b"/><path d="M194.9609,56.6208h6.7252v1.0111h-2.8067v6.9388h-1.1585V57.6319h-2.76Z" fill="#6b6b6b"/><path d="M208.019,56.6316h1.4l-2.9737,3.74v4.1993h-1.1813V60.3714l-2.9737-3.74h1.391l2.155,2.7375Z" fill="#6b6b6b"/><path d="M213.5142,56.6316h1.1526V63.536h3.6244v1.0347h-4.777Z" fill="#6b6b6b"/><path d="M219.3076,56.6316H220.46v7.9391h-1.1525Z" fill="#6b6b6b"/><path d="M225.082,64.5707h-2.7262V56.6316h2.1093a3.7135,3.7135,0,0,1,1.5558.2645,1.9765,1.9765,0,0,1,.8525.728,1.9478,1.9478,0,0,1,.2941,1.0709,1.7316,1.7316,0,0,1-1.227,1.6764,2.5021,2.5021,0,0,1,1.4028.7162,1.8494,1.8494,0,0,1,.5217,1.3178,1.916,1.916,0,0,1-.317,1.0856,2.2991,2.2991,0,0,1-.9309.7789A3.4741,3.4741,0,0,1,225.082,64.5707Zm-.5822-6.927h-.9915V60.03h.767a1.9631,1.9631,0,0,0,1.3105-.3468,1.1468,1.1468,0,0,0,.3894-.8975Q225.9752,57.6428,224.5,57.6437Zm.0865,3.3978h-1.078V63.56h1.1356a3.757,3.757,0,0,0,1.2817-.145,1.2291,1.2291,0,0,0,.5424-.4516,1.1675,1.1675,0,0,0,.2037-.6594,1.1146,1.1146,0,0,0-.2156-.6653,1.28,1.28,0,0,0-.614-.4487A3.8766,3.8766,0,0,0,224.5863,61.0415Z" fill="#6b6b6b"/><path d="M229.19,64.5707V56.6316h2.0169a2.94,2.94,0,0,1,1.9394.5967,1.991,1.991,0,0,1,.7174,1.6146,2.0458,2.0458,0,0,1-.3518,1.1983,2.088,2.088,0,0,1-1.0084.7564,3.5452,3.5452,0,0,1,.7551.6819,13.8491,13.8491,0,0,1,1.0373,1.5059q.42.6761.6736,1.017l.4272.5683h-1.3721l-.3507-.5232c-.0119-.0186-.0348-.051-.07-.097l-.2245-.3126-.3567-.58-.3855-.6192a6.19,6.19,0,0,0-.6537-.7789,2.493,2.493,0,0,0-.5365-.4164,1.8335,1.8335,0,0,0-.8048-.1274h-.3v3.4547Zm1.4983-6.973h-.3457v2.5062h.4381a3.2788,3.2788,0,0,0,1.2012-.1479,1.11,1.11,0,0,0,.5067-.4458,1.2788,1.2788,0,0,0,.1818-.679,1.1962,1.1962,0,0,0-.2017-.679,1.0754,1.0754,0,0,0-.5673-.4291A4.1511,4.1511,0,0,0,230.6886,57.5977Z" fill="#6b6b6b"/><path d="M239.3622,56.5865h.8107l3.61,7.9842h-1.18l-1.0731-2.3525h-3.4336l-1.0065,2.3525h-1.1843Zm1.694,4.62-1.2995-2.8746-1.2042,2.8746Z" fill="#6b6b6b"/><path d="M244.7492,64.5707V56.6316h2.0169a2.94,2.94,0,0,1,1.9394.5967,1.9909,1.9909,0,0,1,.7173,1.6146,2.0458,2.0458,0,0,1-.3517,1.1983,2.089,2.089,0,0,1-1.0084.7564,3.5452,3.5452,0,0,1,.7551.6819,13.8519,13.8519,0,0,1,1.0372,1.5059q.42.6761.6736,1.017l.4273.5683h-1.3721l-.3507-.5232c-.012-.0186-.0348-.051-.07-.097l-.2245-.3126-.3567-.58-.3855-.6192a6.19,6.19,0,0,0-.6538-.7789,2.4906,2.4906,0,0,0-.5365-.4164,1.833,1.833,0,0,0-.8047-.1274h-.3v3.4547Zm1.4983-6.973h-.3458v2.5062h.4382a3.2788,3.2788,0,0,0,1.2012-.1479,1.111,1.111,0,0,0,.5067-.4458,1.2788,1.2788,0,0,0,.1818-.679,1.1969,1.1969,0,0,0-.2017-.679,1.0754,1.0754,0,0,0-.5673-.4291A4.1511,4.1511,0,0,0,246.2475,57.5977Z" fill="#6b6b6b"/><path d="M255.9613,56.6316h1.4l-2.9737,3.74v4.1993h-1.1813V60.3714l-2.9736-3.74h1.3909l2.155,2.7375Z" fill="#6b6b6b"/><path d="M67.107,2.651v8.1105h10.14V2.651h3.7764V21.9191H77.2471v-8.138H67.107v8.138H63.3305V2.651Z" fill="#db5800"/><path d="M98.24,2.651v2.91H89.3861v5.0625h8.476v2.91h-8.476v5.4759h9.0492v2.91H85.61V2.651Z" fill="#db5800"/><path d="M112.3459,2.651l8.6289,19.2681h-3.9861L114.9609,17.23h-8.6855l-1.8878,4.6892h-3.9582L108.485,2.651Zm-4.924,11.7513h6.308l-3.3-7.6275Z" fill="#db5800"/><path d="M127.1308,2.651V19.0092h9.4823v2.91H123.3543V2.651Z" fill="#db5800"/><path d="M152.5207,2.651v2.91h-6.9369V21.9191h-3.7764V5.5609h-6.9369V2.651Z" fill="#db5800"/><path d="M158.9559,2.651v8.1105h10.14V2.651h3.7764V21.9191H169.096v-8.138h-10.14v8.138H155.18V2.651Z" fill="#db5800"/><path d="M68.9947,29.1726A11.5451,11.5451,0,0,1,74.492,30.58v3.31a10.8642,10.8642,0,0,0-5.385-1.8067,3.9421,3.9421,0,0,0-2.2315.5447,1.68,1.68,0,0,0-.8038,1.455q0,1.09,1.4963,2.0134.42.2763,3.231,1.5451a9.2608,9.2608,0,0,1,3.4684,2.4828,5.1843,5.1843,0,0,1,1.0631,3.2822,4.9824,4.9824,0,0,1-1.8112,4.0072,7.04,7.04,0,0,1-4.6925,1.5236,11.25,11.25,0,0,1-3.224-.4066,14.0769,14.0769,0,0,1-3.0274-1.4V43.4615a9.5592,9.5592,0,0,0,5.9017,2.5651,3.8516,3.8516,0,0,0,2.2384-.5928,1.8309,1.8309,0,0,0,.8525-1.5725,2.4823,2.4823,0,0,0-1.4824-2.179q-1.2311-.6628-3.1744-1.5863a9.3291,9.3291,0,0,1-3.4475-2.4141,4.8727,4.8727,0,0,1-1.1406-3.2,4.67,4.67,0,0,1,1.8321-3.8682A7.6051,7.6051,0,0,1,68.9947,29.1726Z" fill="#db5800"/><path d="M91.3844,29.4205v2.91H82.5309v5.0624h8.4759v2.91H82.5309v5.4759H91.58v2.91H78.7545V29.4205Z" fill="#db5800"/><path d="M104.8129,29.1726a14.2508,14.2508,0,0,1,3.2588.3723,16.6136,16.6136,0,0,1,3.4406,1.2688v3.5036a16.3376,16.3376,0,0,0-3.3363-1.4765,11.1876,11.1876,0,0,0-3.1962-.4546,8.2218,8.2218,0,0,0-3.7616.8475,6.2783,6.2783,0,0,0-2.609,2.3936,6.8783,6.8783,0,0,0-.007,6.8956,6.1686,6.1686,0,0,0,2.6021,2.3661,8.3607,8.3607,0,0,0,3.7755.8338,10.25,10.25,0,0,0,3.07-.4546,22.4647,22.4647,0,0,0,3.6861-1.6411V47.13a17.1418,17.1418,0,0,1-3.4973,1.3932,14.8774,14.8774,0,0,1-3.72.4135,12.2121,12.2121,0,0,1-5.5251-1.213,9.19,9.19,0,0,1-3.8251-3.4968,9.42,9.42,0,0,1-1.391-5A9.7289,9.7289,0,0,1,95.21,34a9.5659,9.5659,0,0,1,3.9443-3.5722A12.48,12.48,0,0,1,104.8129,29.1726Z" fill="#db5800"/><path d="M118.7842,29.4205V40.6339a6.0437,6.0437,0,0,0,.5246,2.7443,4.0837,4.0837,0,0,0,1.7129,1.6833,5.6055,5.6055,0,0,0,2.77.6613,6.3344,6.3344,0,0,0,2.9439-.627,3.9817,3.9817,0,0,0,1.7695-1.7107,6.626,6.626,0,0,0,.5593-3V29.4205h3.7765V40.8681a7.5626,7.5626,0,0,1-2.3637,5.98,9.7705,9.7705,0,0,1-6.6855,2.0889,10.8139,10.8139,0,0,1-4.7064-.9514,6.8172,6.8172,0,0,1-3.0422-2.7512,8.245,8.245,0,0,1-1.0492-4.2277V29.4205Z" fill="#db5800"/><path d="M144.3212,29.4205a6.611,6.611,0,0,1,4.49,1.5039,4.939,4.939,0,0,1,1.7337,3.9161,4.8342,4.8342,0,0,1-.86,2.8619,5.6771,5.6771,0,0,1-2.5524,1.9243,5.6464,5.6464,0,0,1,1.6641,1.3521A17.2047,17.2047,0,0,1,150.6,43.8613q1.7914,3.5036,2.6577,4.8273h-4.21q-.4337-.6349-1.1754-2.0272a43.8891,43.8891,0,0,0-2.3775-4.1454,5.66,5.66,0,0,0-1.4545-1.5166,2.9151,2.9151,0,0,0-1.6086-.4488h-1.37v8.138H137.286V29.4205Zm-.8534,8.22a3.4425,3.4425,0,0,0,2.3288-.7309,2.5037,2.5037,0,0,0,.8465-2,2.3559,2.3559,0,0,0-.84-1.9791,3.8116,3.8116,0,0,0-2.3915-.6555h-2.35v5.3652Z" fill="#db5800"/><path d="M159.5314,29.4205V48.6886h-3.7765V29.4205Z" fill="#db5800"/><path d="M179.8781,29.4205v2.91h-6.9369V48.6886h-3.7765V32.33h-6.9369v-2.91Z" fill="#db5800"/><path d="M186.1414,29.4205l4.7273,6.441,4.7829-6.441h4.49l-7.385,9.7242v9.5439h-3.7755V39.1163l-7.4267-9.6958Z" fill="#db5800"/><path d="M211.0964,29.4205,222.705,42.8678V29.4205h3.693V48.6886h-3.2449L211.474,35.02V48.6886h-3.692V29.4205Z" fill="#db5800"/><path d="M243.617,29.4205v2.91h-8.8534v5.0624H243.24v2.91h-8.4759v5.4759h9.0492v2.91H230.9871V29.4205Z" fill="#db5800"/><path d="M263.6468,29.4205v2.91H256.71V48.6886h-3.7764V32.33h-6.9369v-2.91Z" fill="#db5800"/><polygon points="33.715 6.081 27.548 12.162 21.382 6.081 27.548 0 33.715 6.081" fill="#999"/><polygon points="44.412 16.63 38.246 22.711 32.079 16.63 38.246 10.549 44.412 16.63" fill="#999"/><polygon points="55.109 27.178 48.943 33.259 42.776 27.178 48.943 21.098 55.109 27.178" fill="#999"/><polygon points="23.024 16.624 16.857 22.705 10.691 16.624 16.857 10.543 23.024 16.624" fill="#999"/><polygon points="44.418 37.721 38.252 43.802 32.085 37.721 38.252 31.64 44.418 37.721" fill="#999"/><polygon points="12.333 27.167 6.166 33.247 0 27.167 6.166 21.086 12.333 27.167" fill="#999"/><polygon points="23.03 37.715 16.863 43.796 10.697 37.715 16.863 31.634 23.03 37.715" fill="#999"/><polygon points="33.727 48.264 27.561 54.345 21.394 48.264 27.561 42.183 33.727 48.264" fill="#999"/><path d="M27.5509,17.1547,17.3974,27.1775,27.5509,37.19,37.7146,27.1775ZM21.9146,27.1775l5.6363-5.5682,5.6465,5.5682-5.6465,5.5582Z" fill="#db5800"/></g></g></svg>