<svg xmlns="http://www.w3.org/2000/svg" width="60.0444" height="59.212" viewBox="0 0 60.0444 59.212"><g id="Layer_2" data-name="Layer 2"><g id="Layer_1-2" data-name="Layer 1"><polygon points="36.734 6.626 30.016 13.251 23.297 6.626 30.016 0 36.734 6.626" fill="#999"/><polygon points="48.389 18.119 41.671 24.744 34.952 18.119 41.671 11.493 48.389 18.119" fill="#999"/><polygon points="60.044 29.612 53.326 36.238 46.607 29.612 53.326 22.987 60.044 29.612" fill="#999"/><polygon points="25.086 18.113 18.367 24.738 11.648 18.113 18.367 11.487 25.086 18.113" fill="#999"/><polygon points="48.396 41.099 41.677 47.725 34.959 41.099 41.677 34.474 48.396 41.099" fill="#999"/><polygon points="13.437 29.6 6.719 36.225 0 29.6 6.719 22.974 13.437 29.6" fill="#999"/><polygon points="25.092 41.093 18.374 47.719 11.655 41.093 18.374 34.467 25.092 41.093" fill="#999"/><polygon points="36.747 52.586 30.029 59.212 23.31 52.586 30.029 45.961 36.747 52.586" fill="#999"/><path d="M30.0183,18.691l-11.0629,10.92L30.0183,40.5209,41.0922,29.6114Zm-6.1411,10.92,6.1411-6.0669L36.17,29.6114l-6.1521,6.056Z" fill="#db5800"/></g></g></svg>