<?xml version="1.0" encoding="utf-8"?>
<!-- Generator: Adobe Illustrator 25.1.0, SVG Export Plug-In . SVG Version: 6.00 Build 0)  -->
<svg version="1.1" id="Layer_1" xmlns="http://www.w3.org/2000/svg" xmlns:xlink="http://www.w3.org/1999/xlink" x="0px" y="0px"
	 viewBox="0 0 380.8 85.5" style="enable-background:new 0 0 380.8 85.5;" xml:space="preserve">
<style type="text/css">
	.st0{fill:#FFFFFF;}
</style>
<g id="Layer_2_1_">
	<g id="Layer_1-2">
		<path class="st0" d="M75.1,21.4c-0.7-1.2-1.8-2.2-3-2.9l-30-17.4c-2.5-1.4-5.5-1.4-8,0L4,18.4c-2.5,1.5-4,4.1-4,7v34.7
			c0,2.9,1.5,5.6,4,7l30.1,17.3c2.5,1.4,5.5,1.4,8,0l30.1-17.3c1.2-0.7,2.3-1.7,3-2.9c0.7-1.2,1.1-2.6,1.1-4V25.4
			C76.2,24,75.8,22.6,75.1,21.4z M42.1,14.8c0,0.2,0.1,0.4,0.1,0.6C44,21.8,49.8,26.2,56.4,26c-2,1.9-3.5,4.3-4.3,6.9
			c-3.5-0.6-6.8-2.2-9.6-4.4c-2.8-2.2-5-5.1-6.4-8.5c0,0,0-0.1,0-0.1l-0.2-0.6c0-0.1-0.1-0.2-0.1-0.3c-0.1-0.2-0.1-0.3-0.2-0.5
			l-0.1-0.4l-0.1-0.3c-0.1-0.2-0.1-0.3-0.1-0.5c-0.2-0.9-0.4-1.7-0.5-2.6C37.2,14.4,39.7,14.5,42.1,14.8L42.1,14.8z M15.9,25.3
			l0.6,0.2c6.4,1.7,13.1-1.2,16.2-7.1c0.7,2.7,2,5.1,3.8,7.2c-4.7,5.5-11.8,8.3-19,7.4h-0.3l-0.4,0c-0.2,0-0.4-0.1-0.6-0.1h-0.1
			c-0.5-0.1-1-0.2-1.5-0.3c-0.9-0.3-1.7-0.6-2.5-0.9C13.1,29.4,14.4,27.2,15.9,25.3z M19.3,55.9l-0.4,0.5l-0.2,0.2L18.4,57
			c-0.1,0.1-0.2,0.2-0.3,0.3l-0.2,0.2l-0.4,0.4c-0.6,0.6-1.3,1.2-2,1.8c-1.5-2-2.7-4.1-3.6-6.4c0.2-0.2,0.3-0.3,0.5-0.4
			c2.3-2.3,3.7-5.2,4.1-8.4c0.4-3.2-0.3-6.4-2-9.1c2.7,0.7,5.4,0.8,8.1,0.3c1.2,3.4,1.5,7,1,10.5c-0.5,3.5-2,6.8-4.1,9.7L19.3,55.9z
			 M34,70.6c0-0.2-0.1-0.4-0.1-0.6c-1.7-6.4-7.6-10.7-14.2-10.5c2-1.9,3.4-4.3,4.4-6.9c7.2,1.3,13.2,6.2,16,12.9c0,0,0,0.1,0,0.1
			c0.1,0.2,0.2,0.4,0.2,0.7s0.1,0.2,0.1,0.3c0.1,0.2,0.1,0.3,0.2,0.5c0.1,0.1,0.1,0.3,0.1,0.4l0.1,0.3c0.1,0.2,0.1,0.3,0.1,0.5
			c0.2,0.9,0.4,1.7,0.5,2.6C39,71,36.5,71,34,70.6z M60.2,60.3c-0.2-0.1-0.4-0.1-0.6-0.2c-6.4-1.7-13.1,1.2-16.2,7
			c-0.7-2.7-2-5.1-3.8-7.2c4.7-5.5,11.8-8.3,19-7.4H59l0.3,0l0.6,0.1h0c0.5,0.1,1,0.2,1.5,0.4c0.9,0.2,1.7,0.5,2.5,0.9
			C63,56.2,61.8,58.3,60.2,60.3z M64.2,32.3l-0.5,0.4c-4.6,4.7-5.5,11.9-2,17.5c-2.7-0.7-5.5-0.8-8.2-0.3
			c-2.4-6.8-1.2-14.4,3.2-20.1l0.1-0.1l0.4-0.5l0.2-0.2l0.3-0.4c0.1-0.1,0.2-0.2,0.3-0.3l0.2-0.2l0.4-0.4c0.6-0.6,1.3-1.2,2-1.8
			C62.1,27.8,63.4,30,64.2,32.3L64.2,32.3z"/>
		<path class="st0" d="M126.7,15.5V36h-5v-8.3h-14.4V36h-5V15.4h5v7.8h14.3v-7.7H126.7z"/>
		<path class="st0" d="M136.5,19.9v3.5h15.2v4h-15.2v4.1h15.9v4.4h-20.9V15.4h20.9v4.4L136.5,19.9z"/>
		<path class="st0" d="M174.4,31.6h-12.2l-2.1,4.4h-5.3l9.8-20.5h7.3l9.7,20.5h-5.3L174.4,31.6z M172.5,27.4l-4.2-8.9l-4.2,8.9
			H172.5z"/>
		<path class="st0" d="M203.1,31.5V36h-17.7V15.4h5v16.1H203.1z"/>
		<path class="st0" d="M222.4,19.9h-8.8V36h-5V19.9h-8.8v-4.4h22.7L222.4,19.9z"/>
		<path class="st0" d="M250.6,15.5V36h-5v-8.3h-14.4V36h-5V15.4h5v7.8h14.3v-7.7H250.6z"/>
		<path class="st0" d="M329.6,49.4V70l-5.7,0.1l-12.1-14.6V70H307V49.4h6.4l11.3,13.7V49.4H329.6z"/>
		<path class="st0" d="M338.4,53.8v3.5h15.3v4.1h-15.3v4.1h16V70h-21V49.4h21v4.4H338.4z"/>
		<path class="st0" d="M380.8,53.8h-8.9V70h-5.1V53.8H358v-4.4h22.9L380.8,53.8z"/>
		<path class="st0" d="M112.7,61.9c-7.9-0.4-11-2.1-11-6.6s4.5-6.4,10.8-6.4c3.3-0.1,6.5,0.5,9.5,1.7v5.3c-2.9-1.8-6.2-2.7-9.5-2.6
			c-4.2,0-5.8,0.5-5.8,1.8c0,1.1,1.3,1.7,6.3,1.9c7.5,0.3,10.7,2,10.7,6.5c0,5.4-5.1,7.3-10.9,7.3c-4.4,0-7.8-0.6-10.4-1.8v-5.6
			c2.7,2,5.9,3,10.5,3c3.9,0,5.9-0.8,5.9-2.3S117,62.1,112.7,61.9z"/>
		<path class="st0" d="M132.9,54v3.5h15.2v4h-15.2v4.1h15.9V70h-21V49.5h20.9V54H132.9z"/>
		<path class="st0" d="M164.4,66c3.8,0,7.5-1,9.8-3.2v5.8c-2.3,1.3-5.3,2.1-9.8,2.1c-6.4,0-12.4-3.4-12.4-10.9s5.8-11,12.4-11
			c4.5,0,7.4,0.8,9.8,2.1v5.7c-2.7-2.3-6.2-3.5-9.8-3.4c-4.6,0-7.3,2.5-7.3,6.5C157.1,63.7,159.9,66,164.4,66z"/>
		<path class="st0" d="M196.7,49.5h5v8.8c0,8.8-5.5,12.1-11.7,12.1s-11.7-3.3-11.7-12.1v-8.8h5v8.8c0,5.3,2.5,7.6,6.7,7.6
			s6.7-2.3,6.7-7.6L196.7,49.5z"/>
		<path class="st0" d="M216,63.1h-4.9v7h-5V49.5h11.2c5.8,0,9.9,1.5,9.9,6.8c0,3.5-1.9,5.4-4.9,6.2l7.1,7.5h-6.9L216,63.1z
			 M211.1,58.7h5.9c3.7,0,5.1-0.7,5.1-2.3S220.7,54,217,54h-5.9L211.1,58.7z"/>
		<path class="st0" d="M238.4,49.5v20.6h-5.1V49.5H238.4z"/>
		<path class="st0" d="M264.9,54H256v16.1h-5V54h-8.9v-4.5h22.7L264.9,54z"/>
		<path class="st0" d="M281,62.4v7.7h-5v-7.7l-10.7-12.8h6.5l6.7,8.5l6.5-8.5h6.5L281,62.4z"/>
	</g>
</g>
</svg>
