<svg xmlns="http://www.w3.org/2000/svg" viewBox="0 0 287.26 70.45"><defs><style>.cls-1{fill:#fff;}</style></defs><g id="Layer_2" data-name="Layer 2"><g id="Header"><path class="cls-1" d="M73.37,66.09h2.94v3.67a8.11,8.11,0,0,1-3.21.69,4.83,4.83,0,0,1-3.48-1.25,4.12,4.12,0,0,1-1.3-3.09,4.27,4.27,0,0,1,1.35-3.23,4.69,4.69,0,0,1,3.38-1.29,5.92,5.92,0,0,1,1.41.16,11.32,11.32,0,0,1,1.68.58v1.26a6.25,6.25,0,0,0-3.12-.9,3.36,3.36,0,0,0-2.42,1,3.4,3.4,0,0,0,0,4.78,3.56,3.56,0,0,0,2.54.94,6.22,6.22,0,0,0,1.8-.34l.12,0V67.2H73.37Z"/><path class="cls-1" d="M78.26,61.7h1.26v7.53h3.94v1.12h-5.2Z"/><path class="cls-1" d="M88.47,61.58a4.73,4.73,0,0,1,3.38,1.27A4.2,4.2,0,0,1,93.21,66a4.13,4.13,0,0,1-1.37,3.17,4.92,4.92,0,0,1-3.44,1.25,4.63,4.63,0,0,1-3.3-1.25,4.12,4.12,0,0,1-1.32-3.14,4.26,4.26,0,0,1,1.32-3.21A4.67,4.67,0,0,1,88.47,61.58Zm0,1.18a3.47,3.47,0,0,0-2.48.92,3.17,3.17,0,0,0-1,2.38,3.06,3.06,0,0,0,1,2.32,3.65,3.65,0,0,0,4.88,0,3.18,3.18,0,0,0,1-2.36,3.1,3.1,0,0,0-1-2.32A3.37,3.37,0,0,0,88.52,62.76Z"/><path class="cls-1" d="M97.79,70.35h-3V61.7h2.3a4.08,4.08,0,0,1,1.69.29,2.14,2.14,0,0,1,.93.79,2.18,2.18,0,0,1,.32,1.17,1.9,1.9,0,0,1-1.34,1.83,2.74,2.74,0,0,1,1.53.78,2,2,0,0,1,.57,1.43,2.11,2.11,0,0,1-.35,1.19,2.53,2.53,0,0,1-1,.85A3.92,3.92,0,0,1,97.79,70.35Zm-.64-7.54H96.07v2.6h.84A2.17,2.17,0,0,0,98.34,65a1.26,1.26,0,0,0,.42-1C98.76,63.22,98.22,62.81,97.15,62.81Zm.1,3.7H96.07v2.74h1.24a4,4,0,0,0,1.4-.16,1.34,1.34,0,0,0,.59-.49,1.25,1.25,0,0,0,.22-.72,1.2,1.2,0,0,0-.24-.72,1.39,1.39,0,0,0-.66-.49A4.2,4.2,0,0,0,97.25,66.51Z"/><path class="cls-1" d="M104.92,61.65h.89l3.93,8.7h-1.29l-1.17-2.56h-3.74l-1.09,2.56h-1.29Zm1.85,5-1.42-3.13L104,66.69Z"/><path class="cls-1" d="M110.77,61.7H112v7.53h4v1.12h-5.21Z"/><path class="cls-1" d="M126.76,61.7H128v8.65h-1.25V66.59h-4.93v3.76h-1.26V61.7h1.26v3.74h4.93Z"/><path class="cls-1" d="M130.07,61.7h5v1.11h-3.71v2.63h3.59v1.11h-3.59v2.69h3.83v1.1h-5.09Z"/><path class="cls-1" d="M139.67,61.65h.88l3.94,8.7H143.2L142,67.79h-3.74l-1.1,2.56H135.9Zm1.84,5-1.41-3.13-1.31,3.13Z"/><path class="cls-1" d="M145.52,61.7h1.26v7.53h3.94v1.12h-5.2Z"/><path class="cls-1" d="M150,61.69h7.33v1.1h-3.06v7.56H153V62.79h-3Z"/><path class="cls-1" d="M164.62,61.7h1.26v8.65h-1.26V66.59h-4.93v3.76h-1.25V61.7h1.25v3.74h4.93Z"/><path class="cls-1" d="M173.48,66.73l-1-.57a4.2,4.2,0,0,1-1.27-1.07,2,2,0,0,1-.38-1.2,2.12,2.12,0,0,1,.72-1.66,2.66,2.66,0,0,1,1.86-.64,3.61,3.61,0,0,1,2,.61v1.41a2.92,2.92,0,0,0-2-.9,1.68,1.68,0,0,0-1,.28.82.82,0,0,0-.4.72,1.09,1.09,0,0,0,.29.72,3.74,3.74,0,0,0,.94.72l1,.56a2.76,2.76,0,0,1,1.6,2.4,2.17,2.17,0,0,1-.7,1.69,2.57,2.57,0,0,1-1.84.65,3.88,3.88,0,0,1-2.37-.79V68.09a3,3,0,0,0,2.36,1.27,1.52,1.52,0,0,0,1-.32,1,1,0,0,0,.39-.81C174.63,67.7,174.25,67.2,173.48,66.73Z"/><path class="cls-1" d="M177.36,61.7h5v1.11h-3.72v2.63h3.59v1.11h-3.59v2.69h3.84v1.1h-5.1Z"/><path class="cls-1" d="M191.29,68.35v1.36a6.56,6.56,0,0,1-3.19.74,4.93,4.93,0,0,1-2.49-.58,4.36,4.36,0,0,1-1.62-1.6,4.29,4.29,0,0,1-.6-2.21,4.21,4.21,0,0,1,1.37-3.18,4.71,4.71,0,0,1,3.37-1.29,8.09,8.09,0,0,1,3.07.71v1.34a6.11,6.11,0,0,0-3-.87,3.48,3.48,0,0,0-2.5.94,3.1,3.1,0,0,0-1,2.35,3.07,3.07,0,0,0,1,2.34,3.54,3.54,0,0,0,2.51.91A5.75,5.75,0,0,0,191.29,68.35Z"/><path class="cls-1" d="M199,61.7h1.26v4.91a5.69,5.69,0,0,1-.15,1.51,3.31,3.31,0,0,1-.36.84,3.1,3.1,0,0,1-.53.61,4.71,4.71,0,0,1-5.48,0,2.56,2.56,0,0,1-.53-.61,3.48,3.48,0,0,1-.36-.82,6.3,6.3,0,0,1-.14-1.54V61.7H194v4.91a3.56,3.56,0,0,0,.29,1.7,1.92,1.92,0,0,0,.85.76,2.94,2.94,0,0,0,1.37.29,2.81,2.81,0,0,0,1.82-.57,1.78,1.78,0,0,0,.53-.73,4.41,4.41,0,0,0,.17-1.45Z"/><path class="cls-1" d="M202.2,70.35V61.7h2.2a3.21,3.21,0,0,1,2.11.65,2.16,2.16,0,0,1,.79,1.76,2.17,2.17,0,0,1-1.49,2.13,3.78,3.78,0,0,1,.83.75,16.48,16.48,0,0,1,1.13,1.64c.3.49.55.86.73,1.1l.47.62h-1.5l-.38-.57-.08-.1-.24-.34-.39-.63L206,68a7.9,7.9,0,0,0-.71-.85,2.56,2.56,0,0,0-.59-.45,2,2,0,0,0-.87-.14h-.33v3.76Zm1.64-7.59h-.38v2.73h.48a3.81,3.81,0,0,0,1.31-.16,1.24,1.24,0,0,0,.55-.49,1.41,1.41,0,0,0,.2-.74,1.37,1.37,0,0,0-.22-.74,1.22,1.22,0,0,0-.62-.47A4.63,4.63,0,0,0,203.84,62.76Z"/><path class="cls-1" d="M210,61.7h1.26v8.65H210Z"/><path class="cls-1" d="M212.42,61.69h7.33v1.1h-3.06v7.56h-1.26V62.79h-3Z"/><path class="cls-1" d="M226.65,61.7h1.52l-3.24,4.08v4.57h-1.28V65.78l-3.24-4.08h1.51l2.35,3Z"/><path class="cls-1" d="M232.64,61.7h1.25v7.53h4v1.12h-5.2Z"/><path class="cls-1" d="M239,61.7h1.25v8.65H239Z"/><path class="cls-1" d="M245.24,70.35h-3V61.7h2.3a4,4,0,0,1,1.69.29,2.14,2.14,0,0,1,.93.79,2.1,2.1,0,0,1,.32,1.17,1.88,1.88,0,0,1-1.34,1.83,2.74,2.74,0,0,1,1.53.78,2,2,0,0,1,.57,1.43,2.1,2.1,0,0,1-.34,1.19,2.56,2.56,0,0,1-1,.85A3.88,3.88,0,0,1,245.24,70.35Zm-.63-7.54h-1.09v2.6h.84a2.15,2.15,0,0,0,1.43-.38,1.26,1.26,0,0,0,.42-1C246.21,63.22,245.68,62.81,244.61,62.81Zm.09,3.7h-1.18v2.74h1.24a4,4,0,0,0,1.4-.16,1.34,1.34,0,0,0,.59-.49,1.26,1.26,0,0,0,0-1.44,1.42,1.42,0,0,0-.67-.49A4.2,4.2,0,0,0,244.7,66.51Z"/><path class="cls-1" d="M249.72,70.35V61.7h2.19a3.25,3.25,0,0,1,2.12.65,2.18,2.18,0,0,1,.78,1.76,2.21,2.21,0,0,1-.39,1.31,2.23,2.23,0,0,1-1.09.82,3.75,3.75,0,0,1,.82.75,14.91,14.91,0,0,1,1.13,1.64c.3.49.55.86.73,1.1l.47.62H255l-.38-.57-.07-.1-.25-.34-.39-.63-.42-.68a6.88,6.88,0,0,0-.71-.85,2.77,2.77,0,0,0-.58-.45,2.07,2.07,0,0,0-.88-.14H251v3.76Zm1.63-7.59H251v2.73h.48a3.77,3.77,0,0,0,1.31-.16,1.24,1.24,0,0,0,.55-.49,1.41,1.41,0,0,0,.2-.74,1.29,1.29,0,0,0-.22-.74,1.18,1.18,0,0,0-.62-.47A4.63,4.63,0,0,0,251.35,62.76Z"/><path class="cls-1" d="M260.8,61.65h.88l3.93,8.7h-1.28l-1.17-2.56h-3.74l-1.1,2.56H257Zm1.84,5-1.41-3.13-1.31,3.13Z"/><path class="cls-1" d="M266.67,70.35V61.7h2.2a3.22,3.22,0,0,1,2.11.65,2.18,2.18,0,0,1,.78,1.76,2.15,2.15,0,0,1-1.48,2.13,3.75,3.75,0,0,1,.82.75,13.61,13.61,0,0,1,1.13,1.64c.31.49.55.86.74,1.1l.46.62h-1.49l-.39-.57-.07-.1-.25-.34-.39-.63-.42-.68a6.1,6.1,0,0,0-.71-.85,2.54,2.54,0,0,0-.58-.45,2.07,2.07,0,0,0-.88-.14h-.33v3.76Zm1.63-7.59h-.38v2.73h.48a3.77,3.77,0,0,0,1.31-.16,1.19,1.19,0,0,0,.55-.49,1.41,1.41,0,0,0,.2-.74,1.29,1.29,0,0,0-.22-.74,1.18,1.18,0,0,0-.62-.47A4.54,4.54,0,0,0,268.3,62.76Z"/><path class="cls-1" d="M278.88,61.7h1.53l-3.24,4.08v4.57h-1.29V65.78l-3.24-4.08h1.52l2.35,3Z"/><path class="cls-1" d="M73.12,2.89v8.84h11V2.89h4.11v21H84.17V15h-11v8.86H69v-21Z"/><path class="cls-1" d="M107,2.89V6.06H97.39v5.51h9.24v3.18H97.39v6h9.86v3.17h-14v-21Z"/><path class="cls-1" d="M122.41,2.89l9.4,21h-4.34l-2.21-5.11h-9.47l-2.05,5.11h-4.32l8.78-21ZM117,15.69h6.88l-3.6-8.31Z"/><path class="cls-1" d="M138.52,2.89V20.71h10.33v3.17H134.4v-21Z"/><path class="cls-1" d="M166.18,2.89V6.06h-7.56V23.88h-4.11V6.06H147V2.89Z"/><path class="cls-1" d="M173.19,2.89v8.84h11.05V2.89h4.11v21h-4.11V15H173.19v8.86h-4.11v-21Z"/><path class="cls-1" d="M75.17,31.79a12.59,12.59,0,0,1,6,1.53v3.6a11.81,11.81,0,0,0-5.86-2,4.3,4.3,0,0,0-2.44.59A1.83,1.83,0,0,0,72,37.13c0,.8.54,1.53,1.63,2.2.3.2,1.48.76,3.52,1.68a10.07,10.07,0,0,1,3.78,2.71,5.64,5.64,0,0,1,1.16,3.57,5.42,5.42,0,0,1-2,4.37A7.64,7.64,0,0,1,75,53.32a12.45,12.45,0,0,1-3.51-.44,15.7,15.7,0,0,1-3.3-1.53v-4c2.27,1.87,4.42,2.8,6.43,2.8a4.19,4.19,0,0,0,2.44-.65A2,2,0,0,0,78,47.79a2.7,2.7,0,0,0-1.62-2.37c-.89-.49-2-1.06-3.46-1.73a10.14,10.14,0,0,1-3.75-2.63,5.32,5.32,0,0,1-1.25-3.49,5.08,5.08,0,0,1,2-4.21A8.27,8.27,0,0,1,75.17,31.79Z"/><path class="cls-1" d="M99.57,32.06v3.17H89.92v5.51h9.24v3.17H89.92v6h9.86v3.17h-14v-21Z"/><path class="cls-1" d="M114.2,31.79a15.58,15.58,0,0,1,3.55.4,18.07,18.07,0,0,1,3.75,1.38v3.82a17.7,17.7,0,0,0-3.64-1.61,12.15,12.15,0,0,0-3.48-.49,8.92,8.92,0,0,0-4.1.92,6.9,6.9,0,0,0-2.84,2.61,7.07,7.07,0,0,0-1,3.74,7.16,7.16,0,0,0,1,3.77,6.77,6.77,0,0,0,2.84,2.58,9.06,9.06,0,0,0,4.11.91,11.22,11.22,0,0,0,3.35-.5,23.59,23.59,0,0,0,4-1.79v3.82a18.72,18.72,0,0,1-3.81,1.52,16.27,16.27,0,0,1-4.05.45,13.32,13.32,0,0,1-6-1.32,10,10,0,0,1-4.17-3.81,10.29,10.29,0,0,1-1.51-5.45,10.66,10.66,0,0,1,1.56-5.7A10.42,10.42,0,0,1,108,33.15,13.65,13.65,0,0,1,114.2,31.79Z"/><path class="cls-1" d="M129.42,32.06V44.27a6.58,6.58,0,0,0,.57,3,4.48,4.48,0,0,0,1.87,1.84,6.11,6.11,0,0,0,3,.72,6.86,6.86,0,0,0,3.21-.69A4.27,4.27,0,0,0,140,47.27a7.19,7.19,0,0,0,.61-3.27V32.06h4.12V44.53A8.21,8.21,0,0,1,142.16,51c-1.72,1.52-4.14,2.28-7.28,2.28a11.83,11.83,0,0,1-5.13-1,7.38,7.38,0,0,1-3.31-3,8.88,8.88,0,0,1-1.15-4.6V32.06Z"/><path class="cls-1" d="M157.25,32.06a7.2,7.2,0,0,1,4.89,1.63A5.4,5.4,0,0,1,164,38a5.26,5.26,0,0,1-.94,3.12,6.14,6.14,0,0,1-2.78,2.1,6.17,6.17,0,0,1,1.81,1.47,18.57,18.57,0,0,1,2,3.14c1.3,2.54,2.26,4.3,2.89,5.26H162.4a24.76,24.76,0,0,1-1.28-2.21,51.85,51.85,0,0,0-2.59-4.52,6.3,6.3,0,0,0-1.59-1.65,3.22,3.22,0,0,0-1.75-.49H153.7v8.87h-4.12v-21ZM156.32,41a3.74,3.74,0,0,0,2.53-.79,2.74,2.74,0,0,0,.93-2.18,2.57,2.57,0,0,0-.92-2.16,4.13,4.13,0,0,0-2.6-.71H153.7V41Z"/><path class="cls-1" d="M173.82,32.06v21H169.7v-21Z"/><path class="cls-1" d="M196,32.06v3.17h-7.56V53.05h-4.12V35.23h-7.55V32.06Z"/><path class="cls-1" d="M202.81,32.06l5.15,7,5.21-7h4.9l-8,10.59v10.4h-4.11V42.62l-8.1-10.56Z"/><path class="cls-1" d="M230,32.06l12.65,14.65V32.06h4v21h-3.53L230.41,38.16V53.05h-4v-21Z"/><path class="cls-1" d="M265.43,32.06v3.17h-9.64v5.51H265v3.17h-9.23v6h9.86v3.17h-14v-21Z"/><path class="cls-1" d="M287.26,32.06v3.17H279.7V53.05h-4.11V35.23H268V32.06Z"/><polygon class="cls-1" points="36.73 6.63 30.02 13.25 23.3 6.63 30.02 0 36.73 6.63"/><polygon class="cls-1" points="48.39 18.12 41.67 24.74 34.95 18.12 41.67 11.49 48.39 18.12"/><polygon class="cls-1" points="60.04 29.61 53.33 36.24 46.61 29.61 53.33 22.99 60.04 29.61"/><polygon class="cls-1" points="25.09 18.11 18.37 24.74 11.65 18.11 18.37 11.49 25.09 18.11"/><polygon class="cls-1" points="48.4 41.1 41.68 47.73 34.96 41.1 41.68 34.47 48.4 41.1"/><polygon class="cls-1" points="13.44 29.6 6.72 36.23 0 29.6 6.72 22.97 13.44 29.6"/><polygon class="cls-1" points="25.09 41.09 18.37 47.72 11.65 41.09 18.37 34.47 25.09 41.09"/><polygon class="cls-1" points="36.75 52.59 30.03 59.21 23.31 52.59 30.03 45.96 36.75 52.59"/><path class="cls-1" d="M30,18.69,19,29.61,30,40.52,41.09,29.61ZM23.88,29.61,30,23.54l6.15,6.07L30,35.67Z"/></g></g></svg>