<svg xmlns="http://www.w3.org/2000/svg" width="23.1652" height="20.6" viewBox="0 0 23.1652 20.6"><g id="Layer_2" data-name="Layer 2"><g id="Main"><path d="M22.89,17.5589,13.3385,1.0137a2.0276,2.0276,0,0,0-3.5118,0L.2749,17.5589A2.0275,2.0275,0,0,0,2.0308,20.6H21.1344A2.0274,2.0274,0,0,0,22.89,17.5589ZM10.2461,6.2542a1.7745,1.7745,0,0,1,1.2731-.4948,1.8069,1.8069,0,0,1,.9082.2293,1.593,1.593,0,0,1,.64.64,1.8777,1.8777,0,0,1,.2293.9293,4.8718,4.8718,0,0,1-.178,1.0529l-.0151.0875-.0151.0965-1.0288,4.4772h-.9956L10.231,10.01q-.2127-.878-.353-1.584a6.3119,6.3119,0,0,1-.1539-.9654A1.6019,1.6019,0,0,1,10.2461,6.2542ZM12.904,17.5076a1.8256,1.8256,0,0,1-1.3184.5219,1.702,1.702,0,0,1-.8839-.2413,1.81,1.81,0,0,1-.6608-.6547,1.6423,1.6423,0,0,1-.25-.884,1.6988,1.6988,0,0,1,.528-1.2671,1.7559,1.7559,0,0,1,1.2671-.525,1.8283,1.8283,0,0,1,1.3184.525,1.7,1.7,0,0,1,.54,1.2792A1.6609,1.6609,0,0,1,12.904,17.5076Z" fill="#005b89"/></g></g></svg>