<svg height='100px' width='100px'  fill="#000000" xmlns="http://www.w3.org/2000/svg" xmlns:xlink="http://www.w3.org/1999/xlink" version="1.1" x="0px" y="0px" viewBox="0 0 100 100" enable-background="new 0 0 100 100" xml:space="preserve"><path d="M92.304,52.419c-13.761-13.814-27.543-27.607-41.365-41.36c-4.083-4.063-9.086-6.058-14.879-6.042  c-7.344,0.021-14.687,0.004-22.031,0.006c-6.052,0.001-9.004,2.921-9.008,8.91c-0.002,3.735,0,7.47,0,11.205  c0,3.862-0.055,7.724,0.013,11.585c0.094,5.275,1.888,9.939,5.612,13.693c13.865,13.976,27.781,27.903,41.698,41.828  c3.533,3.535,7.966,3.685,11.456,0.231c9.585-9.484,19.128-19.012,28.6-28.609C95.926,60.295,95.837,55.966,92.304,52.419z   M24.03,31.621c-4.169,0.017-7.622-3.382-7.661-7.541c-0.04-4.245,3.437-7.734,7.682-7.708c4.159,0.025,7.571,3.467,7.568,7.634  C31.615,28.174,28.197,31.604,24.03,31.621z"></path></svg>