<svg xmlns="http://www.w3.org/2000/svg" width="20.5948" height="20.5948" viewBox="0 0 20.5948 20.5948"><g id="Layer_2" data-name="Layer 2"><g id="Main"><g id="Side_bar" data-name="Side bar"><path d="M18.3481,0a2.2465,2.2465,0,0,0-1.9749,3.3176l-3.68,3.6805a2.976,2.976,0,0,0-3.6678,0L6.1534,4.1261a1.478,1.478,0,0,0,.2123-.756A1.4978,1.4978,0,1,0,4.8679,4.8679a1.4771,1.4771,0,0,0,.756-.2124L8.4955,7.5272a2.9768,2.9768,0,0,0,0,3.6678l-4.742,4.7424a2.2236,2.2236,0,1,0,.4681.5909l4.8038-4.8039a2.9781,2.9781,0,0,0,1.46.6063v3.8044a2.2468,2.2468,0,1,0,.7489,0V12.3307a2.9777,2.9777,0,0,0,1.46-.6063l2.8717,2.8717a1.477,1.477,0,0,0-.2127.7564A1.4978,1.4978,0,1,0,16.85,13.8547a1.478,1.478,0,0,0-.756.2123l-2.8717-2.8717a2.9762,2.9762,0,0,0,0-3.6677l3.6191-3.6191A2.2451,2.2451,0,1,0,18.3481,0Z" fill="gray"/></g></g></g></svg>
