<svg xmlns="http://www.w3.org/2000/svg" width="40.4516" height="57" viewBox="0 0 40.4516 57"><title>flag</title><g id="Layer_2" data-name="Layer 2"><g id="Layer_4" data-name="Layer 4"><path d="M40.4516,28.4081V17.3758c-7.9616-3.7326-15.9416,1.1584-23.9032,2.85V31.2581C24.51,29.5481,32.49,24.6755,40.4516,28.4081Z" fill="#fff"/><path d="M14.71,18.7181V7.6858A15.7249,15.7249,0,0,1,5.5161,6.5274V17.56A15.7249,15.7249,0,0,0,14.71,18.7181Z" fill="#fff"/><path d="M40.4516,15.5371V4.5048C32.49.7723,24.51,5.6632,16.5484,7.3548V18.3871C24.51,16.6771,32.49,11.8045,40.4516,15.5371Z" fill="#fff"/><path d="M14.71,31.589V20.5568a15.7249,15.7249,0,0,1-9.1936-1.1584V30.4306A15.7249,15.7249,0,0,0,14.71,31.589Z" fill="#fff"/><path d="M1.8387,57a1.8441,1.8441,0,0,0,1.8387-1.8387V1.8387A1.8387,1.8387,0,0,0,0,1.8387V55.1613A1.8441,1.8441,0,0,0,1.8387,57Z" fill="#fff"/></g></g></svg>