<svg xmlns="http://www.w3.org/2000/svg" width="16.7853" height="15.0429" viewBox="0 0 16.7853 15.0429"><title>funnel-white</title><g id="Layer_2" data-name="Layer 2"><g id="Layer_5" data-name="Layer 5"><path d="M6.8022,14.9269c.0019-.1014,0-7.7441,0-7.7441a.395.395,0,0,0-.1152-.281L.0439.2479A.1376.1376,0,0,1,.0124.09.1358.1358,0,0,1,.145,0H16.6386a.14.14,0,0,1,.1342.09.1369.1369,0,0,1-.0315.1581L10.0982,6.9018a.3971.3971,0,0,0-.1152.281s0,5.9638,0,6.05a.3188.3188,0,0,1-.1473.333c-.1869.1006-2.8427,1.433-2.8776,1.4519C6.8727,15.0636,6.8,15.0545,6.8022,14.9269Z" fill="#fff"/></g></g></svg>