<?xml version="1.0" encoding="UTF-8"?>
<svg width="22px" height="22px" viewBox="0 0 22 22" version="1.1" xmlns="http://www.w3.org/2000/svg" xmlns:xlink="http://www.w3.org/1999/xlink">
    <!-- Generator: Sketch 57.1 (83088) - https://sketch.com -->
    <title>Group 5</title>
    <desc>Created with Sketch.</desc>
    <g id="Page-1" stroke="none" stroke-width="1" fill="none" fill-rule="evenodd">
        <g id="activity-who,-what,-when" transform="translate(-1079.000000, -464.000000)">
            <g id="Group-5" transform="translate(1080.000000, 465.000000)">
                <path d="M20,10 C20,15.5232603 15.5232603,20 10,20 C4.47750865,20 0,15.5232603 0,10 C0,4.47673972 4.47750865,0 10,0 C15.5232603,0 20,4.47673972 20,10 Z" id="Stroke-1" stroke="#4682B3" stroke-width="2" stroke-linecap="round" stroke-linejoin="round"></path>
                <path d="M8.9103748,6.21642852 C8.91109904,5.88494616 9.02625385,5.59890296 9.25728771,5.35978872 C9.48832156,5.11918467 9.7649828,5 10.0872714,5 C10.4146297,5 10.691291,5.11918467 10.9179794,5.3568091 C11.1439435,5.59443353 11.2576498,5.88122164 11.256929,6.21717343 C11.256929,6.55312521 11.1432193,6.83991332 10.9143581,7.07753775 C10.685497,7.31516219 10.40956,7.43434685 10.0872714,7.43360542 C9.75194641,7.43360542 9.47166395,7.31143767 9.24714829,7.06710909 C9.02263263,6.82278052 8.9103748,6.53971694 8.9103748,6.21642852 L8.9103748,6.21642852 Z M11.112801,8.55021331 L11.1120768,14.3932417 C11.1120768,14.7336629 11.1642223,14.9675628 11.2677892,15.0956863 C11.3728046,15.2238098 11.6168749,15.2871267 12,15.2871267 L12,16 L8,15.9992551 L8,15.2863818 L8.14991852,15.2863818 C8.52000724,15.2863818 8.75466232,15.2193404 8.85243527,15.0845128 C8.95165671,14.95043 9.00018106,14.7195097 9.00018106,14.3924968 L9.00090531,10.6679759 C9.00090531,10.3357486 8.95093246,10.1040834 8.85026254,9.97149049 C8.75031686,9.83964245 8.51711027,9.77260107 8.15136701,9.77260107 L8.00072424,9.77260107 L8.00144849,9.06047268 L11.112801,8.55021331 Z" id="Fill-3" fill="#4682B3"></path>
            </g>
        </g>
    </g>
</svg>