<svg xmlns="http://www.w3.org/2000/svg" width="20.6" height="13.523" viewBox="0 0 20.6 13.523"><g id="Layer_2" data-name="Layer 2"><g id="Main"><path d="M20.6,6.7615a6.7692,6.7692,0,0,1-6.7615,6.7615c-.1091,0-.2206-.0024-.3274-.0095a.1782.1782,0,0,1-.0356-.0024c-.1091-.0047-.2182-.0118-.3274-.0237-.0095,0-.0189-.0024-.0284-.0024-.1-.0095-.197-.0237-.2966-.0379a.38.38,0,0,1-.05-.01c-.0759-.0095-.1519-.0238-.2278-.04-.1186-.0214-.2348-.0475-.3511-.0784-.05-.0118-.1-.0237-.1495-.04a1.022,1.022,0,0,1-.1138-.0308c-.0617-.0166-.1234-.0356-.1827-.057-.1613-.0522-.3227-.1115-.4793-.1755-.0332-.0143-.064-.0261-.0972-.04-.09-.038-.1756-.0784-.261-.121-.0047,0-.0071-.0024-.0119-.0048-.0949-.0451-.19-.0949-.28-.1447-.0807-.0427-.1566-.0878-.2349-.1329-.0284-.0166-.0546-.0332-.083-.05h-.0024c-.1566-.1-.3108-.2016-.4579-.3131-.0379-.0262-.0783-.057-.1162-.0879-.0356-.026-.0712-.0545-.1068-.083-.0427-.0332-.083-.0664-.1233-.102-.1377-.1139-.2705-.2373-.3986-.363-.0546-.0546-.1092-.1091-.1614-.1661a.2538.2538,0,0,1-.0237-.026c-.0569-.0593-.1115-.1187-.1637-.18-.0071-.01-.0166-.019-.0237-.0285q-.1815-.2064-.3416-.4271c-.0119-.0142-.0214-.0284-.0332-.045q-.0748-.1-.1424-.2065a.5164.5164,0,0,1-.05-.0759c-.038-.0569-.0759-.1162-.1115-.1731q-.0747-.1283-.1495-.2634-.0783-.1424-.1494-.2918c-.0428-.0878-.0831-.1732-.121-.2634-.0238-.05-.0451-.102-.0641-.1542-.019-.045-.038-.0925-.0546-.14-.0189-.05-.0379-.1-.0545-.1495-.0166-.0474-.0309-.0925-.0475-.14-.019-.0593-.0379-.121-.0546-.185a1.1114,1.1114,0,0,1-.0355-.1257c-.0166-.05-.0285-.1021-.04-.1543-.0142-.0546-.0284-.1091-.0379-.166-.0119-.0451-.0214-.09-.0309-.1353-.0142-.0782-.0284-.1542-.04-.2325A.6965.6965,0,0,1,7.1529,7.77c-.0166-.1068-.0308-.2112-.04-.3179-.0119-.1139-.0213-.2278-.0261-.344-.0071-.1139-.01-.23-.01-.3464s.0024-.2325.01-.3464c.0048-.1163.0142-.23.0261-.344.01-.1068.0237-.2111.04-.3179A.6965.6965,0,0,1,7.1648,5.68c.0119-.0783.0261-.1543.04-.2325.01-.0451.019-.09.0309-.1353.01-.0569.0237-.1115.0379-.166.0119-.0522.0238-.1044.04-.1543A1.1,1.1,0,0,1,7.35,4.8659c.0167-.0641.0356-.1257.0546-.1851.0166-.0474.0309-.0925.0475-.14.0166-.05.0356-.1.0545-.1495.0166-.0475.0356-.0949.0546-.14.019-.0521.04-.1044.0641-.1542.0379-.09.0782-.1755.121-.2633q.0711-.15.1494-.2918.0747-.1353.1495-.2634c.0356-.0569.0735-.1162.1115-.1732A3.8889,3.8889,0,0,1,9.71,4.1921c-.0118.0166-.0213.0356-.0308.0522-.0166.0285-.0332.0546-.05.083-.0332.057-.0641.114-.0949.1709-.0119.0213-.0214.04-.0309.0617-.0284.0569-.0569.1115-.083.1684-.0308.0688-.0617.1376-.09.2088-.0285.0688-.0546.1376-.0783.2088a.0329.0329,0,0,0-.0048.0142c-.0261.0688-.0474.1376-.0688.2088a4.8578,4.8578,0,0,0-.18.9133,4.6,4.6,0,0,0-.0237.4793,4.5233,4.5233,0,0,0,.0237.4769,4.82,4.82,0,0,0,.18.9133c.0214.0736.0451.1471.0712.2183.0237.0712.0522.1424.0807.2135s.0593.14.09.2088c.0285.0641.0593.1257.0925.1874.04.0831.0854.1614.13.24a1.078,1.078,0,0,0,.0688.1115l.0356.057c.0332.0545.0688.1068.1068.1589a.4581.4581,0,0,0,.0427.0594c.0284.04.0569.0806.09.121.057.0735.1163.147.1779.2182q.0642.0783.1353.1495c.0522.0546.1044.1091.1589.1613a.2114.2114,0,0,0,.0238.0213c.0427.0428.0877.0855.1352.1258.0474.0427.0949.0831.1447.121a1.3492,1.3492,0,0,0,.1281.1044c.0238.019.05.0356.0736.0546.0332.026.0688.05.102.0711.05.0356.1.0712.1518.102.0522.0333.1044.0665.1566.0973.0356.0214.0736.0427.1091.0617.05.0284.1.0546.1519.0807.0711.0379.1447.0735.2182.1044.0641.0284.1282.0569.1946.0806a2.8533,2.8533,0,0,0,.27.1c.0736.026.1471.0474.2207.0664.05.0142.1.0284.1494.04.0451.0119.09.0214.1353.0308.0142.0024.0284.0072.0427.0095.0759.0143.1518.0285.23.04a4.7539,4.7539,0,0,0,.74.0569,4.8635,4.8635,0,1,0,0-9.727,4.7417,4.7417,0,0,0-.74.0569c-.0783.0119-.1542.0261-.23.04-.0143.0024-.0285.0072-.0427.01A7.8276,7.8276,0,0,0,11.2691.5077c.1566-.0641.318-.1234.4793-.1756.0593-.0213.121-.04.1827-.0569a1.0007,1.0007,0,0,1,.1138-.0308c.05-.0166.1-.0285.1495-.04.1163-.0308.2325-.0569.3511-.0783.0759-.0165.1519-.0308.2278-.04a.38.38,0,0,1,.05-.01c.1-.0142.1969-.0284.2966-.0379.01,0,.0189-.0024.0284-.0024.1092-.0119.2183-.019.3274-.0238A.1858.1858,0,0,1,13.5111.01C13.6179.0024,13.7294,0,13.8385,0A6.7676,6.7676,0,0,1,20.6,6.7615Z" fill="#404263"/><path d="M13.523,6.7615c0,.1162-.0024.2325-.0095.3464-.0048.1162-.0142.23-.0261.344-.0095.1067-.0237.2111-.04.3179a.6965.6965,0,0,1-.0119.0735c-.0119.0783-.0237.1543-.04.2325-.0095.0451-.019.09-.0309.1353a1.3014,1.3014,0,0,1-.0379.166c-.0119.0522-.0238.1044-.04.1543a1.0913,1.0913,0,0,1-.0356.1257c-.0166.064-.0355.1257-.0545.185-.0143.0475-.0309.0926-.0475.14-.0166.05-.0356.1-.0545.1495-.0166.0474-.0356.0949-.0546.14-.0214.0546-.0427.1092-.0664.1614-.0475.1115-.1.2206-.1542.33-.0807.1637-.1685.3251-.2634.4817-.0356.0593-.0735.1162-.1091.1731h-.0024A3.9036,3.9036,0,0,1,10.89,9.3308a3.9375,3.9375,0,0,0,.1969-.3511c.0332-.0617.064-.1233.0925-.1874.0308-.0688.0617-.1376.09-.2088s.057-.1423.0807-.2135c.0261-.0712.05-.1447.0712-.2183a4.6466,4.6466,0,0,0,.18-.9133,4.5233,4.5233,0,0,0,.0237-.4769,4.6,4.6,0,0,0-.0237-.4793,4.6815,4.6815,0,0,0-.18-.9133c-.0214-.0712-.0427-.14-.0688-.2088a.0329.0329,0,0,0-.0048-.0142c-.0237-.0712-.05-.14-.0783-.2088-.0284-.0712-.0593-.14-.09-.2088-.0261-.0569-.0522-.1115-.083-.1684-.01-.0214-.019-.04-.0309-.0617-.0308-.0569-.0617-.1139-.0949-.1709-.0261-.045-.0522-.0925-.0806-.1352a.143.143,0,0,0-.0167-.0237c-.0284-.0451-.0569-.09-.0877-.1352-.04-.0617-.0831-.121-.1282-.18-.045-.0617-.0925-.1234-.1447-.1827a1.7382,1.7382,0,0,0-.121-.1424c-.0284-.0332-.0593-.0664-.09-.1-.038-.04-.0783-.0807-.1186-.121-.0332-.0332-.0688-.0664-.1044-.1-.0309-.0285-.0617-.057-.0925-.0831a1.82,1.82,0,0,0-.1495-.1257,1.0533,1.0533,0,0,0-.1281-.102.7076.7076,0,0,0-.0665-.0522c-.045-.0333-.0949-.0688-.1423-.1-.0451-.0332-.0925-.064-.14-.0925-.0451-.0285-.09-.0569-.1352-.083-.04-.0238-.0807-.0475-.121-.0665a1.5329,1.5329,0,0,0-.1613-.0877c-.0641-.0332-.1281-.0617-.1922-.0926H8.7449c-.0546-.0261-.1092-.05-.1661-.0711-.04-.0166-.0807-.0333-.121-.0475-.0593-.0213-.1186-.0427-.1779-.0617-.0736-.0261-.1448-.0474-.2207-.0664-.0474-.0142-.0949-.0261-.1423-.038s-.0949-.0237-.1424-.0332l-.0356-.0071c-.0783-.0166-.1565-.0308-.2372-.0427a4.7644,4.7644,0,0,0-.74-.0569,4.8635,4.8635,0,0,0,0,9.727,4.7767,4.7767,0,0,0,.74-.0569c.0807-.0119.1589-.0261.2372-.0427l.0356-.0072a7.7706,7.7706,0,0,0,1.5587,1.4971c-.1566.064-.3179.1233-.4816.1755-.0617.0214-.1257.04-.19.0593-.0284.01-.0593.019-.09.0262-.0546.0142-.1092.0308-.1637.0426-.1068.0285-.2159.0522-.3251.0736-.0949.019-.1874.0356-.2823.05a.03.03,0,0,1-.0142.0024c-.102.0166-.204.0285-.3061.04-.01,0-.0189.0024-.0284.0024-.1092.0119-.2183.019-.3274.0237a.1782.1782,0,0,1-.0356.0024c-.1092.0071-.2183.0095-.3274.0095A6.7615,6.7615,0,0,1,6.7615,0c.1091,0,.2182.0024.3274.01a.1858.1858,0,0,1,.0356.0023c.1091.0048.2182.0119.3274.0238.01,0,.0189.0024.0284.0024.1021.0118.2041.0237.3061.04a.03.03,0,0,1,.0142.0024c.0949.0142.1874.0308.2823.05.1092.0213.2183.0451.3251.0735.0545.0119.1091.0285.1637.0427.0308.0071.0617.0166.09.0261.0641.019.1281.038.19.0593.1637.0522.325.1115.4816.1756.0332.0143.0641.0261.0973.04.0878.038.1756.0783.261.121.0047,0,.0071.0024.0118.0048.0949.0451.1875.0949.28.1447.0949.0522.1874.1044.28.1589a.33.33,0,0,0,.038.0238c.1589.0972.3108.2016.46.3131.038.0261.0783.057.1163.0878.0356.0261.0712.0546.1067.0831.0427.0332.0831.0664.1234.102.1376.1139.2705.2372.3986.363.0546.0545.1091.1091.1613.166a.2332.2332,0,0,1,.0237.0261c.057.0593.1115.1187.1637.18q.1958.2243.37.4627c.0594.0806.1139.1613.1709.2443a.8077.8077,0,0,1,.0474.0759h.0024c.0356.057.0735.1139.1091.1732.0949.1566.1827.3179.2634.4816.0545.1092.1067.2183.1542.33.0237.0522.045.1068.0664.1613.019.0451.038.0925.0546.14.0189.05.0379.1.0545.1495.0166.0474.0332.0925.0475.14.019.0594.0379.121.0545.1851a1.08,1.08,0,0,1,.0356.1257c.0166.05.0285.1021.04.1543a1.2975,1.2975,0,0,1,.0379.166c.0119.0451.0214.09.0309.1353.0166.0782.0284.1542.04.2325a.6965.6965,0,0,1,.0119.0735c.0166.1068.0308.2111.04.3179.0119.1139.0213.2277.0261.344C13.5206,6.529,13.523,6.6452,13.523,6.7615Z" fill="#404263"/></g></g></svg>