<?xml version="1.0" encoding="utf-8"?>
<!-- Generator: Adobe Illustrator 24.1.2, SVG Export Plug-In . SVG Version: 6.00 Build 0)  -->
<svg version="1.1" id="Layer_1" xmlns="http://www.w3.org/2000/svg" xmlns:xlink="http://www.w3.org/1999/xlink" x="0px" y="0px"
	 viewBox="0 0 14.6 13.4" style="enable-background:new 0 0 14.6 13.4;" xml:space="preserve">
<style type="text/css">
	.st0{fill:#327AFE;}
</style>
<g id="Layer_2_1_">
	<g id="Layer_1-2">
		<path class="st0" d="M0.3,13.1c0.2,0.2,0.4,0.3,0.6,0.3h12.8c0.2,0,0.5-0.1,0.6-0.3c0.2-0.2,0.3-0.4,0.3-0.7V4.5H0v7.9
			C0,12.7,0.1,12.9,0.3,13.1z M11.7,5.2h2.1v2h-2.1V5.2z M11.7,7.7h2.1v2h-2.1V7.7z M9,5.2h2.1v2H9V5.2z M9,7.7h2.1v2H9V7.7z
			 M9,10.2h2.1v2H9V10.2z M6.3,5.2h2.1v2H6.3V5.2z M6.3,7.7h2.1v2H6.3V7.7z M6.3,10.2h2.1v2H6.3V10.2z M3.6,5.2h2.1v2H3.6V5.2z
			 M3.6,7.7h2.1v2H3.6V7.7z M3.6,10.2h2.1v2H3.6V10.2z M0.9,7.7h2.1v2H0.9V7.7z M0.9,10.2h2.1v2H0.9V10.2z"/>
		<rect y="3.6" class="st0" width="14.6" height="0.5"/>
		<path class="st0" d="M1.5,1H0.9C0.4,1,0,1.5,0,2c0,0,0,0,0,0V3h14.6V2c0-0.5-0.4-0.9-0.9-0.9h-1.5v1.2c0,0.2-0.2,0.4-0.4,0.4
			c0,0,0,0,0,0h-0.8c-0.2,0-0.4-0.2-0.4-0.4c0,0,0,0,0,0V1H4.1v1.2c0,0.2-0.2,0.4-0.4,0.4H2.9c-0.2,0-0.4-0.2-0.4-0.4c0,0,0,0,0,0V1
			H1.5z"/>
		<rect y="3" class="st0" width="14.6" height="0.6"/>
		<polygon class="st0" points="2.9,2.2 3.7,2.2 3.7,1 3.7,0 2.9,0 2.9,1 		"/>
		<polygon class="st0" points="10.9,2.2 11.8,2.2 11.8,1 11.8,0 10.9,0 10.9,1 		"/>
	</g>
</g>
</svg>
