<svg xmlns="http://www.w3.org/2000/svg" width="14.646" height="13.3703" viewBox="0 0 14.646 13.3703"><g id="Layer_2" data-name="Layer 2"><g id="Layer_1-2" data-name="Layer 1"><path d="M.266,13.0908a.8937.8937,0,0,0,.6425.28h12.829a.8932.8932,0,0,0,.6425-.28.9865.9865,0,0,0,.266-.6746V4.5238H0V12.416A.9869.9869,0,0,0,.266,13.0908ZM11.6972,5.1641h2.0963V7.1235H11.6972Zm0,2.5012h2.0963V9.6246H11.6972ZM8.9856,5.1641h2.0968V7.1235H8.9856Zm0,2.5012h2.0968V9.6246H8.9856Zm0,2.5011h2.0968v1.9593H8.9856ZM6.2746,5.1641H8.3714V7.1235H6.2746Zm0,2.5012H8.3714V9.6246H6.2746Zm0,2.5011H8.3714v1.9593H6.2746ZM3.5636,5.1641H5.66V7.1235H3.5636Zm0,2.5012H5.66V9.6246H3.5636Zm0,2.5011H5.66v1.9593H3.5636ZM.8526,7.6653H2.9491V9.6246H.8526Zm0,2.5011H2.9491v1.9593H.8526Z" fill="#999"/><rect y="3.6314" width="14.646" height="0.5378" fill="#999"/><path d="M1.5061,1.0461H.9085A.908.908,0,0,0,0,1.9541V3.01H14.646V1.9541a.9085.9085,0,0,0-.9085-.908H12.1967v1.189a.4018.4018,0,0,1-.4019.4018h-.8469a.4016.4016,0,0,1-.4016-.4018V1.0461H4.1v1.189a.402.402,0,0,1-.4018.4018H2.8513A.4015.4015,0,0,1,2.45,2.2351V1.0461Z" fill="#999"/><rect y="3.0096" width="14.646" height="0.6218" fill="#999"/><polygon points="2.851 2.235 3.698 2.235 3.698 1.046 3.698 0 2.851 0 2.851 1.046 2.851 2.235" fill="#999"/><polygon points="10.948 2.235 11.795 2.235 11.795 1.046 11.795 0 10.948 0 10.948 1.046 10.948 2.235" fill="#999"/></g></g></svg>