<?xml version="1.0" encoding="utf-8"?>
<!-- Generator: Adobe Illustrator 23.0.6, SVG Export Plug-In . SVG Version: 6.00 Build 0)  -->
<svg version="1.1" id="Layer_1" xmlns="http://www.w3.org/2000/svg" xmlns:xlink="http://www.w3.org/1999/xlink" x="0px" y="0px"
	 viewBox="0 0 10.2 7.7" style="enable-background:new 0 0 10.2 7.7;" xml:space="preserve">
<style type="text/css">
	.st0{fill:#3A3A3A;}
</style>
<title>10</title>
<path class="st0" d="M0,4.8l2,2.6C2,7.4,2,7.4,2,7.4c0.1,0,0.1,0,0.2-0.1l1.9-2.5c0.1-0.1,0.1-0.1,0-0.2C4.1,4.6,4,4.5,4,4.5H2.6
	V1.2c0-0.3-0.2-0.6-0.6-0.6S1.5,0.8,1.5,1.2v3.4H0.1C0.1,4.6,0,4.6,0,4.6C0,4.7,0,4.8,0,4.8z"/>
<path class="st0" d="M7.5,7.2c0-0.3-0.2-0.6-0.6-0.6H5.3c-0.3,0-0.6,0.2-0.6,0.6c0,0.3,0.2,0.6,0.6,0.6H7C7.2,7.7,7.5,7.5,7.5,7.2z"
	/>
<path class="st0" d="M8.2,5c0-0.3-0.2-0.6-0.6-0.6H5.3C4.9,4.4,4.7,4.6,4.7,5s0.2,0.6,0.6,0.6h2.4C8,5.5,8.2,5.3,8.2,5z"/>
<path class="st0" d="M9.2,2.8c0-0.3-0.2-0.6-0.6-0.6H5.3c-0.3,0-0.6,0.2-0.6,0.6s0.2,0.6,0.6,0.6h3.4C9,3.3,9.2,3.1,9.2,2.8z"/>
<path class="st0" d="M10.2,0.6C10.2,0.2,10,0,9.7,0H5.3C4.9,0,4.7,0.2,4.7,0.6s0.2,0.6,0.6,0.6h4.4C10,1.1,10.2,0.9,10.2,0.6z"/>
</svg>
