<?xml version="1.0" encoding="utf-8"?>
<!-- Generator: Adobe Illustrator 23.0.6, SVG Export Plug-In . SVG Version: 6.00 Build 0)  -->
<svg version="1.1" id="Layer_1" xmlns="http://www.w3.org/2000/svg" xmlns:xlink="http://www.w3.org/1999/xlink" x="0px" y="0px"
	 viewBox="0 0 10.2 7.7" style="enable-background:new 0 0 10.2 7.7;" xml:space="preserve">
<style type="text/css">
	.st0{fill:#3A3A3A;}
</style>
<title>10</title>
<path class="st0" d="M0,3.1c0,0.1,0.1,0.1,0.1,0.1h1.4v3.4c0,0.3,0.2,0.6,0.6,0.6s0.6-0.2,0.6-0.6V3.2H4c0.1,0,0.1-0.1,0.1-0.1
	C4.1,3,4.1,3,4.1,2.9L2.2,0.4C2.2,0.3,2.1,0.3,2,0.3c0,0,0,0-0.1,0.1L0,3C0,3,0,3,0,3.1z"/>
<path class="st0" d="M7,0H5.3C4.9,0,4.7,0.2,4.7,0.6s0.2,0.6,0.6,0.6H7c0.3,0,0.6-0.2,0.6-0.6S7.2,0,7,0z"/>
<path class="st0" d="M7.6,2.2H5.3c-0.3,0-0.6,0.2-0.6,0.6s0.2,0.6,0.6,0.6h2.4c0.3,0,0.6-0.2,0.6-0.6S8,2.2,7.6,2.2z"/>
<path class="st0" d="M8.6,4.4H5.3C4.9,4.4,4.7,4.6,4.7,5c0,0.3,0.2,0.6,0.6,0.6h3.4C9,5.5,9.2,5.3,9.2,5C9.2,4.6,9,4.4,8.6,4.4z"/>
<path class="st0" d="M9.7,6.6H5.3c-0.3,0-0.6,0.2-0.6,0.6c0,0.3,0.2,0.6,0.6,0.6h4.4c0.3,0,0.6-0.2,0.6-0.6C10.2,6.9,10,6.6,9.7,6.6
	z"/>
</svg>
